<?xml version="1.0" encoding="utf-8"?>
<!-- Generator: Adobe Illustrator 26.5.0, SVG Export Plug-In . SVG Version: 6.00 Build 0)  -->
<svg version="1.1"
	 id="svg5" xmlns:sodipodi="http://sodipodi.sourceforge.net/DTD/sodipodi-0.dtd" xmlns:svg="http://www.w3.org/2000/svg" xmlns:inkscape="http://www.inkscape.org/namespaces/inkscape" sodipodi:docname="audio_stop.svg"
	 xmlns="http://www.w3.org/2000/svg" xmlns:xlink="http://www.w3.org/1999/xlink" x="0px" y="0px" viewBox="0 0 28 28"
	 style="enable-background:new 0 0 28 28;" xml:space="preserve">
<style type="text/css">
	.st0{fill:#FF0000;}
</style>
<path id="path2" class="st0" d="M10.4,18.5c-0.5-0.2-0.8-0.5-1-1c-0.2-0.6-0.2-6.3,0-6.9c0.2-0.5,0.5-0.8,1-1
	c0.4-0.2,0.8-0.2,3.5-0.2c2.5,0,3.2,0,3.5,0.2c0.5,0.2,0.8,0.5,1,1c0.2,0.4,0.2,0.8,0.2,3.6s0,3.2-0.2,3.6c-0.2,0.5-0.5,0.8-1,1
	c-0.3,0.1-1,0.2-3.5,0.2C11.2,18.7,10.8,18.7,10.4,18.5z M12.5,27.9c-3.3-0.4-6.1-1.8-8.4-4c-2-2-3.2-4.3-3.8-7.2
	c-0.3-1.6-0.3-3.8,0-5.4c1.2-5.6,5.3-9.8,11-11c1.6-0.3,3.8-0.3,5.4,0c4.9,1,8.8,4.4,10.5,9.1c1,2.9,1,6.4,0,9.2
	c-0.4,1.1-1.1,2.5-1.8,3.5c-0.7,1.1-2.3,2.6-3.4,3.4c-1.6,1.1-3.9,2-5.7,2.3C15.3,27.9,13.4,28,12.5,27.9z M18,20.3
	c1.1-0.4,2-1.4,2.3-2.4c0.2-0.6,0.2-7.1,0-7.8C20,9,19,8,17.9,7.6c-0.6-0.2-7.1-0.2-7.8,0C9.4,7.9,8.6,8.5,8.2,9
	c-0.7,0.9-0.7,1.1-0.8,4.6c0,3.3,0,4,0.4,4.9c0.5,1,1.5,1.8,2.6,2c0.3,0.1,2,0.1,3.8,0.1C17,20.5,17.6,20.5,18,20.3z"/>
</svg>
