<?xml version="1.0" encoding="utf-8"?>
<!-- Generator: Adobe Illustrator 26.5.0, SVG Export Plug-In . SVG Version: 6.00 Build 0)  -->
<svg version="1.1"
	 id="svg7" xmlns:svg="http://www.w3.org/2000/svg" xmlns:sodipodi="http://sodipodi.sourceforge.net/DTD/sodipodi-0.dtd" xmlns:inkscape="http://www.inkscape.org/namespaces/inkscape" sodipodi:docname="play.svg"
	 xmlns="http://www.w3.org/2000/svg" xmlns:xlink="http://www.w3.org/1999/xlink" x="0px" y="0px" viewBox="0 0 28 28"
	 style="enable-background:new 0 0 28 28;" xml:space="preserve">
<style type="text/css">
	.st0{fill:#C5B3D4;fill-opacity:0.7176;}
	.st1{fill:#784C9C;fill-opacity:0.9137;}
</style>
<sodipodi:namedview  bordercolor="#000000" borderopacity="0.25" id="namedview9" inkscape:current-layer="svg7" inkscape:cx="23.001205" inkscape:cy="15.874547" inkscape:deskcolor="#d1d1d1" inkscape:pagecheckerboard="0" inkscape:pageopacity="0.0" inkscape:showpageshadow="2" inkscape:window-height="1009" inkscape:window-maximized="1" inkscape:window-width="1920" inkscape:window-x="-8" inkscape:window-y="-8" inkscape:zoom="14.803572" pagecolor="#ffffff" showgrid="false">
	</sodipodi:namedview>
<path id="path367" class="st0" d="M11.2,0.6c-12,1.9-14.7,19.5-4,25c0.2-1.8,1.6-3.1,3.3-3.6C3.2,19.4,3.6,7.8,11.1,5.7
	C9.1,4,10.8,2.5,11.2,0.6z"/>
<g>
	<path class="st1" d="M11.1,19.8l8.7-4.8c0.1,0,0.1-0.1,0.2-0.2c0.2-0.2,0.1-0.5-0.2-0.7l-8.7-4.7c-0.1,0-0.2-0.1-0.3,0
		c-0.3,0-0.6,0.2-0.6,0.5v9.4c0,0.1,0,0.2,0.1,0.3C10.5,19.9,10.8,20,11.1,19.8z"/>
	<path class="st1" d="M14.3,0.4c-0.8,0-1.5,0.1-2.2,0.2C11.9,2.5,9.9,4,12,5.6c12.4-3.3,15.4,16.6,2.3,17.1
		c-2.6-0.6-5.9-0.1-6.2,3.2C28.7,35,36.1,1.7,14.3,0.4z"/>
</g>
</svg>
