<?xml version="1.0" encoding="UTF-8"?>
<svg version="1.1" viewBox="0 0 256 256" xmlns="http://www.w3.org/2000/svg">
<path d="m253 121c4.2617-8.6328 4.0508 4.3711 0 0zm-239.8 63.301c-10.809-20.273-13.812-43.52-12.453-66.199 1.6094-32.656 17.992-63.801 42.445-85.25 22.074-20.332 51.664-32.207 81.66-32.777 0.17578 7.1016-20.668 14.227-11.414 26.527 2.582 6.4609 19.91 13.664 3.8359 14.316-37.824 4.7539-71.012 35.961-75.969 74.066-2.1289 17.457 0.01562 35.492 7.6719 51.43-3.3477 6.6719-18.902 5.4648-23.535 15.051-5.0742 4.8125-7.6289 17.477-11.391 4.5859zm104.8 71.199c1.2773-1.793 1.2773 1.793 0 0z" fill="#c5b3d4" fill-opacity=".71765"/>
<path d="m153.3 44.102c-7.1797-5.3633-17.109-2.2617-27.254-4.2031-16.383-0.48047-24.523-23.801-11.547-34.098 10.066-9.8867 25.492-4.3516 37.785-3.2461 27.148 5.1719 53.258 19.273 70.652 40.945-7.3242-7.0703-17.562-8.1367-27.922-5.1719-15.137 0.59766-30.66-0.21094-45.508-0.87109 5.5703 3.2305 17.922 11.207 3.793 6.6445zm-51.195 34.562 79.223 43.332c2.5234 1.3828 3.3906 4.4414 1.9375 6.8398-0.46484 0.76172-1.1328 1.3945-1.9375 1.8359l-79.223 43.332c-2.5273 1.3789-5.7539 0.55859-7.207-1.8359-0.46094-0.76172-0.70703-1.625-0.70703-2.5v-86.668c0-2.7617 2.3633-5.0039 5.2773-5.0039 0.92578 0 1.8359 0.23047 2.6367 0.66797zm21.895-42.164c-1.2773-1.793-1.2773 1.793 0 0zm101.4 9.3008c-0.4375-2.5234 3.6211 3.8359 0 0zm2.4023 4.5c-6.5938-5.5078 6.8242 1.5586 0 0zm-62-1.4023c-7.3359-8.4062 3.4062 2.8203 3.8984 2.1016-1.2852-0.72266-2.6094-1.3789-3.8984-2.1016zm63.5 3.4023c3.1562-1.1133 0.37109 2.2617 0 0zm-56 0.19922c-0.97656-7.2734 2.8633 5.2617 0 0zm6 4c-0.97656-7.2734 2.8633 5.2617 0 0zm2.6992 1.5c1.1836-2.8398 0.88672 2.7461 0 0zm2.8984 3.3008c-3.125-4.7148 5.9531 5.6914 0 0zm70.102 59.199c1.2773-1.793 1.2773 1.793 0 0zm0.10156 15.898c1.1289-3.7344 0.41016 4.5 0 0zm-119.3 118.9c6.0117-0.89844-1.6992 1.875 0 0zm-15.801 0.19922c1.2773-1.793 1.2773 1.793 0 0zm1.3008-216.2c-5.6992-16.891 17.035 2.3672 0 0zm128.7 61.098c3.0234-4.1289 3.4453 5.2734 0 0zm-39.199-1.5977c-9.9453-27.93-34.559-49.945-63.512-56.477-9.8945-9.5781 10.844-8.7734 17.562-7.4023 14.594 0.25781 29.477 1.2031 43.75-1.9219 11.414 1.4648 17.273 14.379 24.469 22.309 8.6016 12.613 15.93 26.996 18.672 41.902-10.914 2.0352-23.828-2.3164-35.195 1.4102-6.8203-6.043-1.7344 11.449-5.7461 0.17969zm40.199 6.1992c2.0039-3.5547 4.0898 3.7969 0 0zm-37.898 0.39844c1.1289-3.7344 0.41016 4.5 0 0zm1.0977 5.1016c0.86328-5.6758 0.5039 6.5117 0 0zm37.801 2.8984c4.0664-14.781 3.6289 9.4688 0 0zm-36.898 2c1.1289-3.7344 0.41016 4.5 0 0zm39.898 2.1016c1.2773-1.793 1.2773 1.793 0 0zm-39.898 1.8984c1.1289-3.7344 0.41016 4.5 0 0zm37.898 1.6016c3.7422-3.9961 3.7617 3.9297 0 0zm2 15.5c-4.5273-6.5039 3.7656-4.2852 0.5 2.5l-0.36328-0.72656zm-140 118.9c-30.445-3.6602-60.668-17.312-80.484-41.195-7.4062-12.066 1.7188-29.578 16.098-29.867 13.332-0.51953 20.832 13.074 31.703 18.645 32.156 20.008 77.008 16.008 104.67-10.031 25.262-22.891 35.625-60.879 24.043-93.168-4.9219-8.5195-1.1953-9.707 5.6484-6.1445 11.277 3.4023 31.031-5.0664 36.242 6.5273 3.7344 19.684 3.793 40.492-1.0391 60-13.66 53.043-64.609 95.508-120.04 95.301-5.6055 0.16797-11.246 0.51563-16.84-0.0664z" fill="#784f9c" fill-opacity=".91372"/>
</svg>
