<?xml version="1.0" encoding="utf-8"?>
<!-- Generator: Adobe Illustrator 26.5.0, SVG Export Plug-In . SVG Version: 6.00 Build 0)  -->
<svg version="1.1"
	 id="svg5" xmlns:sodipodi="http://sodipodi.sourceforge.net/DTD/sodipodi-0.dtd" xmlns:inkscape="http://www.inkscape.org/namespaces/inkscape" xmlns:svg="http://www.w3.org/2000/svg" sodipodi:docname="save.svg"
	 xmlns="http://www.w3.org/2000/svg" xmlns:xlink="http://www.w3.org/1999/xlink" x="0px" y="0px" viewBox="0 0 28 28"
	 style="enable-background:new 0 0 28 28;" xml:space="preserve">
<style type="text/css">
	.st0{fill:#0061AE;}
</style>
<path id="path2" class="st0" d="M11.9,17.5l-2.1-2.1l0.5-0.5c0.3-0.3,0.6-0.5,0.7-0.6c0.1-0.1,0.5,0.2,1.1,0.9l1,1v-5.7h1.8v5.7l2-2
	l0.6,0.6l0.6,0.6l-2,2c-1.1,1.1-2,2-2.1,2S13,18.6,11.9,17.5z M3.9,23.4c-0.9-0.2-1.5-0.6-2.3-1.3c-2.7-2.5-2-6.9,1.3-8.4
	c0.7-0.3,0.9-0.4,1-0.8c0.4-1,1.8-2.1,2.8-2.3c0.3-0.1,0.3-0.1,0.5-0.8c0.5-2.5,2.7-4.8,5.3-5.3c0.9-0.2,2.5-0.2,3.3,0.1
	C17.6,5.2,19.3,6.6,20,8l0.4,0.8l0.8,0.1c2.2,0.3,4.2,2.2,4.8,4.4c0.1,0.3,0.2,0.7,0.2,0.9c0,0.2,0.2,0.5,0.5,0.8
	c1.9,2,1.8,5.2-0.3,7.2c-0.8,0.7-1.4,1-2.3,1.3C23.1,23.7,4.8,23.7,3.9,23.4z M24.3,21.5c0.7-0.4,1.3-1,1.7-1.7
	c0.2-0.4,0.2-0.7,0.2-1.4c0-0.8,0-1-0.3-1.5c-0.2-0.3-0.5-0.8-0.8-1.1c-0.5-0.4-0.5-0.6-0.5-0.9c0-0.7-0.3-1.6-0.7-2.3
	c-0.8-1.2-2-1.9-3.6-2l-1-0.1L19,9.8c-0.4-1-0.7-1.6-1.4-2.2c-3.4-3.2-8.8-0.8-8.8,3.9v0.7l-0.9,0.1c-0.7,0-1,0.1-1.4,0.3
	c-0.6,0.4-1,1-1.2,1.7c-0.1,0.5-0.1,0.5-0.8,0.7c-0.8,0.2-1.3,0.5-1.8,1c-1.8,1.8-1.1,4.9,1.3,5.7c0.5,0.2,1.2,0.2,10.1,0.2l9.5,0
	L24.3,21.5z"/>
</svg>
