<?xml version="1.0" encoding="UTF-8"?>
<svg version="1.1" viewBox="0 0 256 256" xmlns="http://www.w3.org/2000/svg">
<path d="m108.7 160.2-18.801-18.801 4.9023-4.5c2.6992-2.5977 5.5-5 6.1992-5.3984 0.80078-0.5 4.3008 2.3008 10.102 8.1016l8.8984 8.8984v-52.5h16v52.5l18-18 5.6992 5.8008 5.8008 5.6992-18.5 18.5c-10.199 10.199-18.699 18.5-19 18.5s-9-8.5-19.301-18.801zm-72.699 54.199c-8.3984-2.2969-13.801-5.3984-20.699-11.797-24.5-22.801-18.199-62.801 12-76.602 6.5-3 7.8008-4 9.3984-7.5 3.9023-8.8008 16.402-18.898 25.801-20.898 2.8984-0.60156 3.1016-1.1016 4.3008-7.4023 4.3984-23.199 24.801-43.801 48.301-48.801 8.5977-1.8984 22.598-1.3984 30.199 1 15.301 4.8008 30.801 17.5 37.898 31.102l3.6992 7 7.1016 1.1992c20.199 3.1016 38 19.699 43.5 40.301 0.80078 3 1.5 6.6016 1.5 7.8984 0 1.4023 1.8008 4.3008 4.3984 7.1016 17.402 18.699 16.203 48-2.6992 65.699-6.8984 6.4023-12.5 9.5-21.398 11.801-8.5 2.1992-175.1 2.1016-183.3-0.10156zm186.2-17.699c6.5-3.1992 12.102-9 15.199-15.598 1.6016-3.5 2.1016-6.5 2.1016-13.102 0-7.3984-0.39844-9.1992-2.8984-13.898-1.5-3-5-7.5-7.7031-10.102-4.1992-4.1016-4.8984-5.1992-4.8984-8.6016 0-6.1992-2.6992-15-6.3008-20.699-7.3008-11.398-18.199-17.5-32.801-18.5l-9.0977-0.69922-2.1992-6.1016c-3.2031-8.7969-6.7031-14.199-12.801-20.098-31.199-29.402-80.801-7.3008-80.801 36.098v6.3008l-7.8984 0.5c-6.2031 0.40234-8.8008 1-12.5 3.1992-5.4023 3.2031-9.4023 8.7031-11.102 15.402-1.1992 4.5977-1.3008 4.6992-7.1016 6.3008-7.6992 2-11.699 4.1992-16.297 8.7969-16.301 16.301-9.6016 44.703 12.199 52.301 4.8984 1.6016 10.699 1.6992 92.199 1.5l87-0.19922z" fill="#0061ae"/>
</svg>
