<?xml version="1.0" encoding="UTF-8"?>
<svg enable-background="new 0 0 612 241" version="1.1" viewBox="0 0 612 241" xml:space="preserve" xmlns="http://www.w3.org/2000/svg">
<style type="text/css">
	.st0{opacity:0.7;fill:#E94734;fill-opacity:0.6667;enable-background:new    ;}
</style>

<path class="st0" d="m475 7.9c0-4.9-0.1-4.8 2.3-2.7 1.4 1.3 1.5 1.5 1.2 1.8-0.1 0.8-2.3-1.6-2.5-1.5-0.3 1-0.1 1.3 1.2 2.7 2.8 2.8-0.2 1.4-1.3 0.1 0.1 3.1-1.1 6.8-0.9-0.4zm-10.7 4.3c1.7-2.8 0.9-1.9-1-3.8 0.5-0.7 1.7-3.6 3.1-2 2.4 1.4 1.9 1.3 0.6 3.4 2.3 1.6 2.5 2.8-0.6 1-0.4 0-2 2.6-2.1 1.4zm2.3-3.6 0.3-0.6c-0.4-0.3-1.1-0.8-1.5-1.1-0.2 0.3-1 1.1-1 1.3 0.5 0.3 1.8 1.6 2.2 0.4zm20.6 4.9c-0.4-0.9 0.9-2.6-0.4-3.5-1.4-3.3-1.4 4.4-2.6 3.2-0.3 0.4 1.3-9.2 2.2-8.2 0.5 1.8-0.7 3.4 1.3 4.7 0.6-1 1-5.3 1.9-3.6-0.2 0.5-1.5 8.3-2.4 7.4zm-30.9 2.6c-0.1-0.1-0.5-0.9-0.8-1.7 0-1.9-3.9-2-3.2-3.1 0.2-0.2 1.6 0.4 1.8 0.3 0.1-0.3-1.5-3.4-0.7-3 0.7-0.3 1.7 4.3 3.2 4 1.2 0.4 1.5 0.7 1.3 1.1-0.1 0.2-0.3 0.2-0.8 0-2.4-1.3 1.6 3.7-0.8 2.4zm44 2.8c-0.8 0.3 5.6-8.4 5.1-6.2-0.3 1.2-0.8 0.9-0.3 2.9 0.4 2.5 0.2 1.9-1.8 2.2-2.1-0.1-1.9 1.7-3 1.1zm3.9-2.8c-0.1-1.2-0.2-1.2-1.5 0.5-0.6 0.6 2.1 0.5 1.5-0.5zm5.2 10.9c0.9-2.1 2.4-1.3 1.4-4.5-0.3-0.1-3.3 3.4-3.6 2.1-0.2-0.2 8.5-8.2 5.4-3.8-1.1 0.8-0.6 2.1-0.5 3.4 0.6-0.5 3.7-3.6 3.5-2.2-0.2 0.3-5.6 6.1-6.2 5zm-73.4 1.4c-8.3-5.7-0.1-1.1-1.3-5.5-0.1-0.9-0.1-1 0.2-0.9 0.7 0.1 6.9 4.6 6.9 5 0.5 1.9-7.4-5.3-5.9-2.6 0.5 1.3-1 1-1.6 1.6 2 1.2 9.6 7.8 1.7 2.4zm80.8 4.8c-0.1-0.1-0.1-0.8 0-1.5 1.1-3.2-3.2 1.5-3.7 0.2 0.1-0.9 6.6-4.1 7-4.3 1.3-0.3-2.1 8-1.2 3 0.8-2.3-0.9-1.1-1 0.3-0.5 2.1-0.3 2.8-1.1 2.3zm-83.2 3.9c-1.5-1.4-8.2 1.3-3.3-1.3-5.3-2.3-1.4-2 1.4-0.5 1.7-1 4.7-0.9 1.3 0.5 2 0.6 4.7 3 0.6 1.3zm52.4 4.2c-0.8-0.7 0.3-2 1.1-1.3 1.1 0.6-0.3 2.4-1.1 1.3zm32.2 1c-0.2-0.2 1.4-2.6 1.3-2.7-1.2 0.3-4.5 0.9-1.5-0.6 1.7-0.6 6.3-2.3 6.5-2.3 0.8 0.1-1 5.7-2.7 3.5-1.4-2.2-2.5 3.2-3.6 2.1zm5-3.3c1.2-1.8-2.9-0.2-1.1 0.3 0.9 0.4 0.9 0.4 1.1-0.3zm-33.7 5.6c-0.8-2.2 3-1.1 1.3 0.3-0.6 0.4-1 0.3-1.3-0.3zm-61.6 2.7c-6.4-0.6-2.9-1.8-0.2-3.5 1 0.4-1.6 1.8-1.5 2.2 0.5 1.2 4.3-2.3 4.4-1.4 0.3 1.1-3.5 1.9 0.4 2.2 1.7 0.3 1.9 0.3 1.9 0.7-0.1 0.4-0.8 0.4-5-0.2zm96.5 3.1c-0.3-0.2 1.7-2.1 1.6-2.2 0-0.2-6.9 0.9-6.5 0.5-1-1 7.8-1.4 8-1.5 1-0.2-2.9 4.5-3.1 3.2zm-2.4 6.9c-3.3-0.2-3.8-1.3 1.6-0.8 7.9 0.4 5.1 1.4-1.6 0.8zm-98.2 1.3c0.1-0.7 1.1-1.3 1.4-2-0.3-0.5-2.8-2.3-1.6-2.3-0.3-0.1 9.9-0.8 8.6-0.1-1.2 1.4-4.5-0.3-5.7 2.1 1.3 1.2 1.8 1.9 3.7 1.6 6.8 0.3-6.5 1.9-6.4 0.7zm3.1-0.7c-0.2-1.1-2.6 0.1-0.7 0.2 0.4 0 0.7 0 0.7-0.2zm-0.7-2.5c1-0.8-1.5-0.7-0.8 0 0.4 0.3 0.5 0.3 0.8 0zm93.8 11.6c0-0.2 0.3-0.5 0.6-0.7 1.9-0.9-2.7-0.7-1.7-1.8 0.3-0.3 2.9 0.5 3.6 0.6 0.6-0.3 2.9-1.9 2.6-0.8 0 0.2-0.2 0.5-0.5 0.7-2 0.7 3.3 0.9 2 1.8-0.3 0.2-3.1-0.5-3.9-0.7-0.6 0.3-2.9 2-2.7 0.9zm-92.2 2.4c-2.4-0.7-0.5-2.8 0.3-3.6 0.2 0 2.2 1.1 2.4 1 1.3-2.2 2.8-2.3 0.9 0.6 3.2 1.4 2.1 2.2-0.5 0.9-0.7 1.2-1.4 2.4-3.1 1.1zm1.8-0.9c1.1-0.8-1-1.9-1.4-1.5-0.3 0.6-1.2 1.1 0.1 1.6 0.9 0.6 0.9 0.6 1.3-0.1zm80.4 8.9c33.2-52.1-51.2-90.3-73.1-34.9-5.1 13.2 0.7 24.6 5.1 35-4.6-4.4-8.7-16-8.2-23.3-0.6-25.9 26.5-44.9 51.4-39.3 28.3 4.1 44.9 42.1 24.8 62.5zm7.8 0.2c-2.1-1.1-3.3-1.8-3.4-2.1-1-1.5 5.5 2.3 5.6 2.1-0.8-3.4 4.3-0.9-1.2-3.7-9.5-4.8 9.1 1.6 3.3 2.4-3.4 0.5 3.3 5.5-4.3 1.3zm-86.9 3.3c0.8-8 3.4-0.4 4.4-4.6 0.5-1.7 0.8-2.2 1.2-1.7 0.4 0.1-0.6 2.8-0.6 3 0.2 0.1 3.1-1.3 2.2-0.1-0.4 0.3-6.9 4.4-7.2 3.4zm2.3-1.6c1.8-0.7 0.4-0.9-0.6-1.2-0.2 0.7-1.4 2.4 0.6 1.2zm-3.6 4c-47.7-75 80.7-122 101.4-39.2 2.4 13.1-1.1 30-10.3 39.4-1 0-0.9-0.7 0.5-2.5 4.5-6.3 7.4-13.7 8.6-21.7 4.6-31-23.6-58.6-54.3-57.7-40.6-1.8-70.7 46.2-45.5 79.7 1.5 1.7 1 2.8-0.4 2zm34.6 5.6c-0.8-1.1 1.2-1.9 0.2-2.8-0.5-0.2-0.3-1.4 0.1-1.7 0.6 0.4 0.3-5.7 0.3-6.9 14.9-0.3 9.4 2 10.2-15.6-1.3-0.4-2.7-0.9-3.8-1.6-2.2 2.1-5.4 5.1-7.1 6.9 1.8 1.5 4.5-0.4 6-0.1 1.7 2.3-4.9 3-6.3 2-1.3-0.7-2.2-0.2-1.1 0.9 1.2 1 0.3 1.3-0.4 2.1-0.6-0.6-1.7-1.9-2.2-0.8-0.3 0.2 2.5 2.8 3.5 3.6-2.1 1.9-6.5 6.6-8.7 8-2.5-1 0.2-1.8 2.4-4.4 1.9-1.8 3.4-3.4 3.5-3.6-0.6-1.3-2.5-3.1-3.5-0.9 0.3 0.7 2 1.3 0.7 2.1-0.4 0.4-0.6 0.4-0.9 0.2-1.1-1.2-1.4-1.2-2.6 0.2 2.5 1.9 0.5 3.4-1.3 1.4-1.2 0.7-1.9 2.6-3.2 0.6 0.4-0.4 1.9-1.8 2-2-2.5-1.7-0.3-3.7 1.4-1.2 0.6-0.7 1.9-1.4 0.6-2-1.7-0.9 0.1-2.6 1.1-1.3 0.4 0.3 0.8 0.6 0.9 0.6 0.2 0 1.1-1 1.4-1.3-0.5-0.5-2.4-2.5-2.7-2.1-0.8 0-7.5 9.2-8.1 5.7 0-0.4 8-8.1 8.3-8.1 0.5 0.1 4.1 4.2 4.1 3 0.7-0.3-0.9-1.5-1.2-1.9 0.7-0.7 1.1-1.6 2.1-0.4 1.2 1.3 1.7 0.1 0.9-1.1-2.5-4.3 3-9.1 1.9-4.8-0.8 1.1-1.1 3.7 0.1 4.4 0.4-0.1 6.6-6.2 6.8-6.5-0.1-1.1-1.2-2.1-1.4-3.7 1.9-0.4-22.3-0.3-21.6-0.1-0.4-0.1-0.3 8.2-0.4 9.8-2.2-0.2-7.6 1.2-6-1.8h4.3c0-0.8-0.1-2.4-0.1-3.2-1 0-3.1-0.1-4.2-0.1-1.1-2.6 2.5-1.3 4.3-1.6 0-0.8-0.1-2.4-0.1-3.2-1.4-0.2-5.1 0.5-4.3-1.3-0.3-0.6 3.5-0.4 4.3-0.5 0-0.8 0.1-2.4 0.1-3.2l-4.2-0.1c-1.2-2.6 2.3-1.6 4.2-1.8 0-0.6 0-3.2-0.4-3.2-0.2-0.1-4.5 0.2-4-0.6-1.3-1.8 4.7-0.9 6.1-1 0 2.5 0.2 7.4 0.2 9.9h21.7c0.4-1.3 0.9-2.7 1.7-3.7-2.3-1.6-12.4-14.3-9.1-4.2 0.9 0.7-0.4 2.2-1 1.5-1.3-1.3-1.9-4.1-0.9-6 0.5-1.3 0.5-1.3 0.2-1.7-0.8-1.5-5.4 5.1-6.1 4.9-0.1 0-1.5-1.3-3-2.7-1.5-2.1-7-5.1-4.5-6.3 6.7 4.3 5.5 10.1 11.7 2.3-0.1-0.9-1.7 1.7-2.2 0.7-0.8-0.5-0.8-0.8 0-1.5 2.5-2.5-5.5 1.6-5.3-4.5 0.5-5.4 9-3.7 7.1 1.7-0.1 2.3 1.7-2.4 3 0.5-4.4 4.7 3.1-1.6 3.3-2.4-0.2-0.6-5.7-5.8-7.1-7.1 0.2-0.2 1-1.1 1.1-1.1 1.6 1.4 7 6.6 8.4 8.2 0.1 0.5-6.5 5.4-5 6 1 0.7 2.4-1.2 4.1-0.7 1.5-0.1 5.7 1.1 3.2 2.8-1.6-1-4.2-1.6-5.5-0.4 0.4 0.4 7.4 7.2 9 8.8 1.1-0.7 2.5-1.3 3.8-1.6v-12.5c-0.5 0-1.5-0.2-2.1-0.2 0-0.4-0.1-1.3-0.1-1.7 3 0.2 3-1.4 0-1.3-0.3-2.6 1.7-0.9 2.2-2.1-0.1-0.8-2.6-0.2-2.1-1.6 0.1-0.6 0.1-0.6 1-0.7 4-1.1-2.7-1.5-4.1-1.4v-5.8l1.7-0.1 0.1 4.2c4.2 0.6 3.3-0.7 3.4-4.2 2.5-0.6 1.7 2 1.7 4.2h3.3c0.1-1.8-0.9-4.8 1.7-4.2v6c-0.9 0.1-5.4-0.2-5 0.5-0.5 1 1.4 0.7 2.1 0.8-0.1 1.4 0.6 1.7-1.8 1.9-0.6 0.4-0.4 1 0.7 1 1.4 0 1 0.7 1.2 1.6-0.6 0.1-2.2-0.1-2 0.7-0.4 0.9 1.4 0.5 2 0.6 0 1.1 0.3 2-1.3 1.9-1.8-0.1-0.4 9.9-0.8 12.4 1.3 0.2 2.6 0.8 3.7 1.6 1-1.8 12.3-9.9 7.9-9.8-1-0.1-2.9 0.3-3.4 0.8-4.4-0.2 2.7-4.6 6.4-1.5l0.8-0.8c-1.1-1.2-2.2-6.9 0.3-5.4 0.9 3.2-0.2 5.7 3.4 1.6-0.9-0.9-2.8-2.6-3.7-3.4 1.7-1.2 4.1-5.9 5.5-3.1-0.8 0.8-2.3 2.3-3 3.1 0.5 0.5 2.1 2.2 2.4 2.3 1.1-0.3 3.2-4.6 4.2-1.8-2.1 2.5-4.5 2.8-0.5 5.3 0.3 0 2.9-3.2 3.2-2.6 1.4 0.8 0.7 0.9-1.1 2.9-4.4 5.7-4-5.2-8.2 1.1 0 0.3 1.3 0.6 2.5 0.6 5.3 1.1-1.3 2.9-4 0.6-1.7 1.3 0.8 2.4 0.2 4.4 0.2 1.7-1.2 5.5-2.9 3.1 5-12-6.6 1.8-9.1 3.7 0.8 0.9 1.2 2.6 1.6 3.5 0.2 0.3 8.3 0.4 8.4 0.1-0.2-2.6-3.8-2.3-4.1-3.9 0.2-2 3.7 0.2 4.6 1.2 0.7 0.6 1.2 2.9 2.1 2.9 1 0.2 0.2-2.5 1.4-2.1 1.3-0.5 0.4 2.3 1.4 2.1 1.8-1.5 2.5-4.8 6-4.8 1.3-0.3 1.1 1.8 0.1 1.7-1.6 0.2-3.3 1.7-3.4 3 0.4 0.2 4.2 0.1 5.3 0.1 0.1-1.2 0.2-3.7 0.2-4.9h6.2c1 2.3-2.6 1.7-4.4 1.8v3.3h4.3v1.6h-4.3v3.3c0.9 0.1 4.8-0.3 4.4 0.5 1.4 1.8-4.8 1-6.3 1.1 0-1.2-0.1-3.6-0.1-4.8-2.5 0.2-7.9-1.2-3.8 2.4 0.9 0.9 3.1 0.5 2.8 2-0.9 2-5.2-1.1-5.8-2.9-0.6-1-0.2-1.6-1.1-1.5-1-0.2-0.3 2.4-1.4 2.2-0.8 0.1-1.1-0.4-1-1.3-0.4-3.6-2.4 4.8-7.3 4.3 0-0.4-0.1-1.7 0.3-1.8 1.4 0 4.5-2.2 3.9-3.2-0.1-0.2-7.9-0.3-8.2 0-0.6 0.9-1 2.7-1.8 3.6 1.9 1.7 7.3 7 9.2 8.5 1.1-0.6 1.7-1.6 2.8-0.1-0.3 0.4-1.8 1.6-1.2 1.9 0.8 1.1 1.9-1.7 2.7-0.3 1.2 0.7-1.2 1.6-0.6 2.3 0.9 1.3 1.8-1.9 3.3 0.2-0.4 0.4-1.2 1.2-1.5 1.6 0.2 0.2 0.7 0.6 0.9 0.9 0.7-0.7 3.2-3.3 3.7-3.3 0.5 0.1 4.1 3.6 4.1 3.9-0.8 2.6-3.2-1.4-4.1-1.7-4.9 3.2 0.4 2.9 0.3 5.6-0.5 2.2-3.4-2-4-2.1-0.2 0.1-1.9 1.8-2.4 2.3 1.1 1.2 4.7 3.3 1.8 4.1-1.1-1-3.2-3.1-4.2-4.1 1.2-0.8 5.7-5.6 2.1-3.7-0.7 0.7-0.9 0.7-1.5 0.3-1.3-0.6 0.9-1.7 0.7-2.4-0.3-1-1.7 0.4-2.2 1-0.7-0.7-1.5-1.1-0.4-2 1.7-2-1-1.1-1.7-0.1-0.7-0.6-1.7-1.5-0.4-2.1 1.4-1.2-6.9-7.4-8.4-9.5-0.9 0.7-2.8 1.2-3.7 1.6v15.5h10.3v3.6c0 3.1 0 3.6 0.3 3.6 0.5-0.1 0.4 1.7 0 1.7-0.3 0.1-0.5 1.2 0 1.2 0.4-0.1 0.3 1.3 0.3 1.6-1.4 0-4.2 0.3-2.9-1.6 1-0.9-0.1-1.1-0.2-2.1 0.2-1.7 0.9-0.3 0.6-3.7-0.1-2.2-0.1-2.6-0.4-2.6-0.2 0-0.3 0.2-0.4 0.6 0 1.1-2.1 0.9-1.9-0.3 0.8-0.8-4.9-0.3-5.9-0.4v1c1.2 0 3.7 0.1 5 0.1 0.3 1.9 0.2 4.1 0 5.9-2.5 0.6-1.4-2.5-1.7-4.2h-3.2c0 1-0.1 5.4 0.3 5.3 0.4 0.2 0.2 1.2 0.2 1.7-0.7 0-2.2 0.1-3 0.1 0-0.5 0-1.6 0.3-1.9 0.5 0 0.2-4.2 0.2-5.2h-2.8c-0.1 1-0.2 3.1-0.2 4.1-2.6 1.3-1.5-3.8-1.6-5.8 1.3 0 3.9-0.2 5.1-0.2v-1l-5.8-0.1c-0.1 0.7 0.1 1.5-0.9 1.4-0.7 0.1-0.8 0-0.8-0.6 0-0.5-0.2-0.7-0.5-0.7-0.5-0.1-0.5-0.1-0.5 2.7 0 2.6 0 2.8 0.4 2.9 0.6 0.1 0.5 1.4 0 1.6-1.3 1.2 3.1 2.9-2.8 2.4zm13.9-29.3c5.8-2.1 4-10.8-2.1-10.7-9.1 0.2-6 13.7 2.1 10.7zm-24.3-25.5c-0.1-0.3-1.8-1.7-2.2-2.2-0.4 1.3 1 2.9 2.2 2.2zm1.4-1.8c0-1.1-1.3-1.7-2.3-1.5 0.5 0.3 2.4 3 2.3 1.5zm31.1 75.7c0.1-0.4 0.7-0.5 0.7-0.1s-0.9 0.7-0.7 0.1zm-0.7 3.2c0.5-0.7 2.5-0.2 0.4 0.2-0.6 0.1-0.6 0.1-0.4-0.2zm-6.5 2.6c0-0.3 0.4-0.7 0.4-0.2 0 0.3-0.4 0.7-0.4 0.2zm-3.7 27.3c-0.3-8.8 0.2-14.1-0.6-12.7-0.5 0.7 0.1-3.8-0.6-3.6-0.6-0.6 0.7-0.8 0.2-2.2-0.6-5.3-1.3 2.6-1.3-0.9 0.1-1.1 0.1-1.1-0.6-1.4-0.5-0.1-2.1-1.1-1.7-0.1 0 0.3 0.9 1.7 0.7 2-0.2 0-1.6-3.4-1.9-3.3-2.2-0.4-6.6 1.3-8.3 2.9-0.6-0.6 1.6-2.2 1.8-2.8 0.7-2.2 3-3.9 5-4.9 1.8-3.2-0.4-8.2 3.1-11.1 1.4-1.1 1.8-2.7 2.8-3.3 3.5-2.3 4.5-5.1 9.4-6.7 2.5-0.7 7.4-4.2 3.2-0.1-2 1.9-1.1 1.8-2.7 2.9-1.9 1.1-0.5 0.8 1.8-0.5 2.8-1.4 3.4-2 1.6 0.5-0.4 2-9.5 5-3.1 3.3 2.3 0.6 5.2-2.6 7.1-3.7-0.8 2-2.6 6.6-4.8 7.1 2 0.2 0.8 0.2 0.7 1.3 0.1 0.3 0.1 0.3-0.2 0.1-0.5-0.2-5.5 2.9-4.8 2.8s6.7-3.3 2.9-0.3c-1.5 0.7-0.6 1.6-1.5 2.2-1.3 0.7-1.5 1.2-0.3 1.1 2.9 0.1-3.1 1-2.2 1.8 1.4 0.8-2 0.2-2.6 0.2 0.9 2.4-1.8 0.6-0.4 1.8 1.7 1.3-1.4 0.6 0.5 1.4 2.4 1.9 8.1 4.5 8.5 7.4 0.4 1.9-0.7 1.8-1.4 0.3-1.1-2.2-0.1 0.3-0.7 0.7-0.3 0.2-0.4 0.2-0.6-0.1-0.7-0.8-1.1 1.3-1.7-0.5-1-1.9-0.5 0.4-1.4-0.5-0.5-0.4 0.5 1.5-0.2 1.2-1.4-1.2-2.6-4.1-2.4 0.2 0 2.1 0 2.2 0.6 2.4 2.2 1.5 0.8 1.2-0.6 0.3 0 0.6 0.1 3.2-0.2 3.3-0.3 0-0.1-4.3-0.6-3.9-1.6-1.3 0.1 4.5-0.7 3.6-0.3-0.2-1-0.2-1.4-0.3-0.2 1.3-0.3 18.4-0.4 12.1zm-0.1-15.2c0.3-2 0.4-2.4 0.2-2.2-0.8 0.3-0.9 4.7-0.2 2.2zm2.7-1.2c-0.6-0.5-0.1 1.4 0 0.5 0.1-0.2 0-0.5 0-0.5zm8.1 47.4c0-0.1 1.9-3.3 1.8-3.4 0.1-0.2-1.9-0.1-1.8-0.4 0.2-0.7 5.9-9.9 6-9.8 0.3 0.2 1.7 2.8 2.2 3.5 0.2-0.3 1-1.7 1.2-1.7 0.4 0.4 4.9 8.2 6 10-1.1 0-3.3 0.1-4.4 0.1 0.3 0.5 0.8 1.4 1.1 1.8-2.2 0-11.6 0-12.1-0.1zm9.6-1.4c0.6-0.3-6.6-0.4-6.3-0.5 0-0.2 1.4-2 0.5-1.7-0.2 0-1.6 2-1.6 2.4-0.4 0 8.3 0.2 7.4-0.2zm3.3-1.8c-0.1 0-3.5-6.9-3.8-5.9-0.1 0.5 2.4 4.4 3 5.4-4.7 0.3-0.5 1.2 0.8 0.5zm-4.4-0.1c-0.1-0.4-2.8-0.6-2.7 0-0.1 0.3 0.2 0.3 1.4 0.3s1.4-0.1 1.3-0.3zm-4.2-4.1c2.3-3.9 1.1-2.3 2.9-1.2 0.4-0.2-1.1-2.6-1.3-2.6-0.6 0.5-6.4 11-1.6 3.8zm1.2 1.7c1.2-1.1 1-3-0.4-0.5-1.2 1.8-0.2 1.6 0.4 0.5zm1.9 0.4c-0.2-0.5-0.6-0.4-0.6 0.1 0 0.4 1 0.5 0.6-0.1zm2.2 0.3c0-0.1-1.4-3.3-1.7-2.4-0.1 0.2 1.2 3.1 1.7 2.4zm-38 6.3c4.3-2.6 0.8-2.3-1.5-3.9-4 1-7-4.5-4.7-7.8 0.5 3.7-0.9 5 3.2 2.4 0.5-0.1 0.8-0.3 0.8-0.4 2.3-7.5 12.1 0.8 7.4-1.3-3.2-2.6-2.1 3.1-1.6 3.9 2.4 3-0.8 7.8-4.3 7.5l0.7-0.4zm2.7-4.6c0-0.3-0.3-0.9-0.5-1.2-0.2 0.3-0.7 0.8-0.9 1 0.3 0.1 1.6 0.8 1.4 0.2zm-5.2-1.7c0.3-1.4-1.9 0.1-1.1 0.3 0.8 0.4 1.1 0.3 1.1-0.3zm2.9-0.9c0-0.1-0.2-0.2-0.4-0.2-1 0 0.2 1.4 0.4 0.2zm0.7-2.8c0-1.5-1.5 0.3-0.8 0.4 0.8 0.3 1 0.2 0.8-0.4zm17.1 75c-3-4.6 2.4-22.6-2.5-17.9-1.3 0.9-2.3 1.6-1.1 0.2 2.6-2.2 0.9-6.5 2.7-9.3 1.7-3.1 1.3-8.1-1-10.4-1.6-1.9-2.9 0.6-5.3 0.5-2.2 0.3-3 0.6-4.1 1.5-3.2 1.7 2.2-3.2 4.9-3.3 4.6 0.7 11.1-14.4 5.7-13.5-2.8 0.9-3.9 2.9-3.6 5.6-3.1-3.8 2.7-5.4 3-8-0.8-5.6-3.6-8.7-7.7-3.2-6.3 5.5 6.6 4.9 1.8-0.7 1.2 1.3 2.9 1.8 4.5 0.6-2.7 2.2-4.4 7-8.7 5.3-2.9 3.1 2.5 8.3 6.1 10.9-3.6-0.9-8.9-5.7-9.5-10-0.7-3.5-3.8 3.7-3.6 6.2-0.7 4.2-0.8-6.8 0.6-7.4-1.3-0.1-3.8-0.3-4.6-1.5-2-1.7 4.2 0.9 6-0.6 3.4-1.2 9.6-6.1 10.8-8.5 1.6-2.7 1.8-24.4-1.1-25.6 0.5 1.1-3.4 4.2-2.6 5.7 0 1.8-2.3-2.1-1.7-2.9-0.3-3.7 5.7-2.9 2-6.1-3.2 4.1-1.9 0.8-2.3-2.7-0.7-0.7-2.1-2.2-2.8-2.9-0.3 10.5-2.5 5.1-9.3 5-0.8 1-1.6 5.5-1.5 7.1-2.5 0.9-3.4-4.3-4.9-8.7-0.8-2.7-0.3-2.7-1.8-3.7-0.7-0.6-1.2-0.6-1.2-0.1 0 0.2 1 1.1 1.3 1.4-0.2 1.7-0.2 4.4 0.1 5.5-0.9 0.2-4-2.8-3.6-4.4-0.4-1.3 3.7-4.2 0.2-3.3-0.7 0.2-0.8 0.3-0.8 0.9 0.3 1.8-3.1 2-4 3.3-3 2.7 1-7 2.9-4.9 0.7 0.4 1.7-0.3 2.4-0.6-2.4-2.5-5-5.8-6.5-8.7-6.4 6.7-9.1 7-6.5-4.8-0.7 1.1-4.4 2.4-5.5 2.5 0-1 1.1-5.2 2.1-5.5 0.8-1.3-2.9-2-3.6-2.2 1.8-2.8 6.7-2.4 7.9 0.8 1.5-1.6 1.8-5.8 0-7.5-3.4-2.2-4-2.6-3.2-8.2 2.1 2.5 3.8 3.9 3.4 7 1.1 1.1 0.8-7.2 1.7-7.5 0.9-2.6 5.2 2.5 6.1 3.1 0.3 0 1.8-1.4 2.2-1.8-0.5-1-1.5-2.8-1.7-3.6-0.9-3.8-0.7-2.5-1.8-1.1-0.1 2.6-7.5 1.1-5.2 0 1.2-0.1 3.4-2.8 4.6-2 0.6 0.2 0.7 0.2 1.1-0.4 1.6-7.8-2.8-4.6-3.5-7.7-0.4-1.4-0.6-8.4 0.5-5.6 2 3 3 3.5 3 6.9 0.8 0.3 2.5-13 5.5-10.8-0.2 2.6-0.7 7.8 0.2 10.4 0.8-1.3-0.4-2.5 0.3-3.9 0.7-1.3 4.8-3.1 5.2-2.3-1.2 1-2.2 5-3.7 5.2-1.1 0.2-1 2.9-1.1 3.8 2.1-1.6 1.9-5.1 5.6-3.4 3.1 1.1 0 1.1-1 2.3-1.2 1.6-2.5-0.2-3.6 1.3-1 0.8-0.6 2.2 0.5 1.2 1.6-1.2 4.4-0.3 5.8 1.9 0.7 1.3-1.1-0.2-2.1 0.5-2.3 0.9-3 0-3.9-1.1 1.1 4.6 5.8 4.8-1.7 8.3-0.4 0.3-0.4 0.3 0.3 0.9 2.9 2.7 1.7-1 3.9-1.6 0.8-0.4 3.7 0.9 4.3 1.8-1.6-0.1-4.1 0.9-5.7 1.2 5.8 2.5 2.7 1 2.4 7.8 0 0.4 0.1 0.5 0.5 0.4 3.5-1.1 3.8 2.7 3.2 5.7-0.6-1.5-2.2-2-3.5-2.9-0.1 1.2 0.6 4.3 1 5.6 0.4 1.1 7.1-7.2 8.2-4.6 4.9 13.5-0.2 12 9.2 7.2 2.8 4.6 5.9 15.4 8.2 20.9 0.6 1.6 0.7 2.6 1.2 0.8 0.9-3.1 2.7-6.4 3.5-9.8 3.6-7.4-1.1-17.8 9.8-8.9 2.3 3.2 1.9-5.4 2.8-8.3-0.6-7.3 7 0.7 9.5 3.2 0.6-2 1.3-5.2 1.2-6.6-0.4 1-2.6 1.8-3.2 2.5-0.3 1-0.3 1-0.5 0.6-0.6-2.2-0.3-6.7 3.2-5.4 2-0.2-2.2-6.8 0.4-7.1 0.9 0 4-1.2 1.5-1.2-1.3 0.1-2.6-1.2-3.9-0.9-2.9 0.4 3.4-2.9 4-1.6 1.1 0.3 0.5 1.6 1.3 2.1 3.7-0.4 2.9-2-1-3.7-1.8-0.9-0.5-1.5 0.4-3.5 3.5-6.2 0.1 0.1-2.7-1.8-0.8-0.3-1.2-0.3-2 0-1.1 0.5 0.8-1.9 2.1-2.6 1.7-1.7 6.3 2.3 4.1-1.1-0.6-0.7-0.7-0.7-1.6-0.6-1.3 0.5-2.5-1.5-3.6-1.8-1.2-0.5-0.4-0.7 0.6-1.2 4.3-1.9 3.3 2 5.7 3 0-0.3 0.1-3.7-1-3.4-1.7-0.2-2.4-4.3-3.8-5.2 0.4-0.6 4.3 0.9 4.9 1.8 1.2 0.4 0.1 3.4 0.7 4.2 1.7-0.5 0-9.3 0.7-10.4 2.7-1.7 5.4 15.4 5.3 9.6-0.6-1.9 1.9-3.6 2.8-5.4 1-1.9 0.7 0.7 0.8 2.2 0.5 7.4-4 2.7-4 8.6-0.8 4.5 2.4 1.6 4.2 3.9 0.8 0.7 1.2 1 1.7 1 2.4 0.8-5.1 3-5.4-0.2-1-3.2-2 4-3.2 4.9l2.1 2.1c9.1-9.4 5.3 0 7.9 4 0.1-1.6-0.7-2.5 1.3-4.5 0.7-0.8 1.4-1.7 1.6-2 0.9-2 0.8 5.3 0.3 5.3-1 1.8-2 1-3.2 2.6-1.3 2.1-1.4 3.4-0.7 5.8 0.6 1.3 0.7 2.2 1.4 0.6 0.8-3.4 8.6-1.1 6.6 0.3-1-0.1-2.4 0.9-3.3 1.7 1.7 1 2.3 4.6 2.4 5.8-0.6 0.3-4.6-1.7-5.3-2 0.1 1.8 1.6 7.3 0.4 8.9-1.4 1-3.6-1.6-5.5-3-1.6-1.3-1.3-2-2.3-0.1-1 2-4.2 5.4-5.4 7.2 0.4 0.4 1.4 0.9 2.1 0.6 2.6-1.7 5.5 7.9 2.9 5-0.5-0.6-0.9-0.9-1.8-1.2-3.1-0.7-1.3-3.5-4.4-3.4-0.2 0.4 0.1 1.5 0.6 1.8 2.7 1.5-1 6.1-2.8 6.2 0.3-1 0.3-3.8 0.1-5.5 3-2.9 0.1-1.7-1-0.3-0.9 3.3-1.9 11.1-5.1 11.6-0.8-1.6-0.1-3.8-1.4-6.2-0.4-1.1-0.6-1.4-0.9-1.3-10.5 2.8-7.3 3.2-9-4.7l-2.8 3c-0.1 0.9 0.2 5.9-0.7 4.2-1.4-2.5-2.2-1.3-2.9 0.5 5.8 1.5 2.3 9 1.7 6.7 0.5-1.6-2.6-3.9-2.7-5.6-3.1 5.8-3.3 21.9-1.7 25.6 3.1 5.8 13 9.8 20 9.1-14.5 2.8-2.9-1.8-6.4 12.8-2.5-21.1-3.4-2-13.6-1.3 1.2-0.9 7.5-4.2 7.3-5.6 0.3-1 0.8-4.2-0.8-3.8-4.8 1.7-9.1-4.5-2.8-5-3.4 1.6-1.1 4.8 2.2 3.2 4.4-2.1-7.4-7.1-7.6-6.6-0.1 0.1-0.3 1-0.3 2-1.7 5.6 7.4 7 4.8 11.1-1.8 1.5 0.5-1.2-0.7-2.1-2.4-3.4-3 3.2-3.8 5.2-2.3 6.6 7.2 7.9 9.3 11.8-2.4-1.8-6.6-3.3-9-5-1.7-1.4-2.4-1.2-1.1 0.9 1.8 3.3 2.7 8.1 1.9 11.8-0.5 2.3-0.8 2.5-0.6 0.4 0-2.8 0.1-7.1-1.8-2.7-1.4 2.8-1.5 3.7-0.7 6.4 1.4 6.2-0.9 14.5-0.4 22.3l0.3-1.3zm-9.6-84.4c-0.6-0.4 3.1-3.6 2.5-4.2-0.5-0.1-2.1 2.6-2.6 2.9-0.7-0.4 2.4-4.2 0.8-3.2-2 0.2-1.8 6.6-0.7 4.5zm19.5-0.1c1.6-1.9-2.9-6.6-1.5-3.7 1 1.2 1.3 3.9 0.3 1.8-0.8-1.8-3.4-3.6-1.1-0.5 1.6 1.1 1.3 4.5 2.3 2.4zm-14.2-6.6c-0.3-3-0.9-10-2.4-4.9 0.6 1-0.1 2-0.6 2.7 0.6 0.4 4 7 3 2.2zm9.9-0.2 1.4-2c-2-1.4 0.5-3.5-1.9-4.4 0 0.7-3.3 13.3 0.5 6.4zm-31.1-0.8c0.4-1.1 0.7-2 0.7-2-2-1.2-3.2-1.7-3.2-1.6 0.6 1.6 1.5 9.2 2.5 3.6zm52.1 0.7c1.8-5.4 1.2-4.5-2-2.7 0.3 0.5 1.3 6.9 2 2.7zm-36.3-1.9c-0.8-1-1.1-0.9-1.1 0.3-0.1 2.5 0.8 1.2 1.6 0.4l-0.5-0.7zm20.1 0.6c0.1-2.1-0.5-1.2-1.3-0.1 0.1 0.8 1.6 2.6 1.3 0.1zm-42.2-0.6c-0.1-1 0.6-3.8-0.6-4-0.3 3.3-0.4 3.6-1.1-0.3-0.9 1-1.5 1.4-0.6 3 0.7 1.2 2.5 3.9 2.3 1.3zm64.6 0.2c1.2-1.3 2.1-3.3 0.4-4.2-0.4 1-1.1 5-1.1 1.4-0.2-5.6-1.9 6.6 0.7 2.8zm-49.1-0.3c0.5-2.3 1.3-7.6-2.5-7.6-1.1 0.9-3.8 5.8-3.5 6.1 0.6 0.2 5.3 2.1 6 1.5zm36.1-0.7c1.3-0.4 2.3-0.8 2.3-0.8 0-0.7-3.5-6.3-3.9-6.3-0.3 0-2.2 1.5-2.8 1.9l0.1 2.5c0.1 4.2 0.5 3.9 4.3 2.7zm-11.4-0.7c2-1.4-1.7-2.1-0.7-0.8 0.3 0.6 0.1 0.7-0.4 0.2-1.7-1.5-0.6 3.7 1.1 0.6zm-15.6 0.6c0.3-0.5 0.4-1.4 0-1.6-0.3-0.2-1.6 1.5-1 0.2 0.1-0.2 0.2-0.5 0.2-0.5-3.3-0.8 0.3 3.2 0.8 1.9zm-32.2-1.4c1-0.9 3.5-1 3.5-2.4 0-0.6-0.1-0.6-0.9-0.1-0.9 0.6-1.1 0.2-0.3-0.5 0.7-0.6 0.6-0.9-0.2-0.9-0.7-0.9-4.4 5.7-2.1 3.9zm78.8-0.7c-0.1-2.4-4.3-4.6-2.8-2.3 1.8 1.8-1.6-0.6-1.2 0.5-0.2 1.3 2.7 1.8 3.5 2.5 0.8 0.5 0.9 0.4 0.5-0.7zm-61.3-3.6c-0.4 1.2-5.3 2.8-5.1 1 1.7-2.3 3.5-4.5 5.7-1.9 3.4-2.9-2.1-0.6-5.4-9.1-2 1.8-2 7.3-1.9 11.5 1.5 0.9 3.3 2.1 4.6 2.7l2.1-4.2zm49.2 2.2c2.3 0.3 0.7-15.6-1.7-10.7-2.2 6-7.8 4.9-4.7 7.8 1.2-1.7 2.9-2 4.4 0.3 0.3 0.9 1.9 1.4 1.1 2-2.8 1.6-6.2-3.6-2.8 2.8 1.2-0.7 3-1.7 3.7-2.2zm-13.6-2.8c-0.1-0.7 1.3-4.8 0.2-5.6-1.8-1.3-6.2-6.1-6.2-3-0.6 11.4-6.3 10.1 4.6 6.5 2.3-1.2-1.8 7-5 3-1.2 0.7-1.7 0.8-0.7 2.1 0.4 1.2 1.6 0.5 2.3 1.1 0.1 1.1 4.9-4 4.8-4.1zm-22.9 4c0.7-0.4 1.8 0.2 2.2-1.1 0.5-1.1 0.9-1.1-0.1-1.6-1.3-0.5-2.7 1.6-4.2 0.3-0.8-0.5-3.3-4.9-1.4-3.7 0.6 0.5 5.2 1 4.9 1.8 4.6 4.2-1.3-7.1-1.8-8.9-0.2-0.5-3.9 2.9-5 4 0.2 1.3 0.5 4 0.7 5.4 0.7 0.8 4.4 4.9 4.7 3.8zm-15.1-2.3c2.5-1 2-1.8-0.5-0.9-2 0.4 2.8-1.4 2.2-1.7-1.6-1.5-6.4 4.3-1.7 2.6zm50.3 0.1c-0.3-1-2.4-3.9-3.9-2.7-0.5 0.4 2.4 1.2 2.4 1.5 0.3 0.4 0.1 0.4-0.9 0-3.9-0.9 1.6 2.3 2.4 1.2zm-15.5-0.5c0.7-0.4 1.5-1.6 1.8-2.4 0.2-1-7.4 1.4-2.9 0.9 4.2-0.1-1.4 0.6-1.3 1.2 0.4 0.4 1.6 1.1 2.4 0.3zm-19.2-0.1 0.5-0.4c-0.9-0.5-2.5-0.5-3.1-0.9-0.5-0.5 4 0.4 2.9-0.3-0.8-0.5-3.4-0.9-4.3-1-0.1 1.2 2.3 4.1 4 2.6zm-21.6-5.6c-0.3-2.5 1.3-4.9 2.4-6.6-0.4-4.2-2.4-10.4-1.1-14.7 0.5-2 0.5-2.1-0.5-2.4-1.3-0.2-3.9-2.3-5.2-3.1-1 1-3.1 1.3-1 3.8 3.9 5.2 2.8 7.4-0.1 12.3 0 0.1 0.3 0.1 0.6 0.1 3.6-2.6 5.9-1 6 4.2-0.9-1.6-4.6-2.2-5.2-3.3-1.2-1.5-4.5 3-4.9 4.1 0 0.6 0.3 0.5 0.7-0.2 0.1-1.3 4.6-2.4 5.9-2.3-0.8 1.1-2.1 6.2-3.8 5.6-2.6-0.2 4.7 6.5 6 7.5-0.1-1.4 0-2.6 0.2-5zm63 3c1.5-1.8 6-5.8 3.6-5.4-1.8 0.7-3.1-4.5-3.9-5.6 1-0.1 5.2 0.6 5.9 2.2 0.4 0.7 0.5 0.7 0.7 0.5 0.2-0.3 0-0.6-1.1-2.2-1.3-1.8-2.6-3.3-3.9-2-1 0.8-4.2 1.9-5.1 2.9-0.3-1.8 1.6-7.3 4.4-4.8 0.7 0.7 1.6 0.8 2.4 0.9-4.1-6.5-3.3-8.3 1-14.3-2.9-4.2-4.6 0.8-8 1.3 0.1 4.4 0.9 11.2-1.5 16.3 5.7 6.2 0.3 15.8 5.5 10.2zm-48.8-0.8c-0.2-1.9-0.8-0.7-1.3 0 0.7 0.5 1.7 1.6 1.3 0zm32.7 0.4 0.6-0.4-1.2-1.2c-0.1 1-0.8 2.9 0.6 1.6zm-33.5-4.8c-0.3-2.3-1.8-8-2.7-10.4-0.8 0-5.9 5-5.9 5.8 0 0.6 0.8 2.4 1.8 3.9 0.8 1.2 1.1 1.8 0.7 0.4-1.4-1.3 4.3-6.8 3.4-3.8-0.6 1.2 0.2 4.5-1.6 4.7-2.3 1.1 1.4 2 2.2 2.9 0.9-1.1 2.6-2.4 2.1-3.5zm37.9 2c0.8-0.2 0.6-1.4-0.2-1.5-1.8-0.1-1.1-3.5-1.6-4.6-0.8-1.7 0.8-0.8 2.1 0.4 1.7 1.6 1.5 2.8 1.2 4.3 0.3 0.2 2.5-3.8 2.9-5.2-7.4-7.8-6.3-8.6-8.2 2.1-1 3.6-0.8 3.2 1.6 5.9 0.4-0.4 1.6-1.2 2.2-1.4zm-66.1-2.2c5.6-3.8 2.1-5.8 0.8-10.3 0-0.7-3.9 14.2-0.8 10.3zm91.1-0.3c-1.2-6-1.4-13.6-3.1-7.2-0.5 2.5-2.3 3.2-0.9 4.9 1.2 0.9 4.7 5.2 4 2.3zm-66.6 0.2c0.4-0.3 0.4-3.2 0.5-4.2-2.6 0.7-3.7 7.2-1 2.1 0.7 0.2-1.9 3.9 0.5 2.1zm41.9 0.2c0.1-0.3-1.3-2.5-0.6-2.3 0.3 0 1.2 3 1.6 1.7 0.3-0.8-1-2.9-2.2-3.6-0.9-0.5-0.3 5.9 1.2 4.2zm-56.8-0.9c0.3-0.6 2.9-5.1 0.9-4.2-3.6-0.4-5.6 5.2-2.3 2.4 4.3-3.6-3.4 4.1 1.4 1.8zm72.1 0.2c0.2-0.4-0.2-1.2-1.1-2.1-2.3-3.2 2.7 3 2.6 0.5-0.1-1.9-3.1-2.6-4.5-2.7-0.9-0.3 1.8 6.3 3 4.3zm-87.2-4.4c2.6-0.4 5-3.8 1.2-1.9-3.2 1.6-0.2-1 1-1.6 1.5-0.8-2.7-1.5-2.7 0.1-0.5 1.9-2.3 4.8 0.5 3.4zm102.1-0.6c-0.6-3.3-1.5-4.3-3.4-3.6-1.8-0.1 3 2.5 2.3 2.8-0.7 0-5.1-2.7-2.8 0 0.3 0.5 4.8 3 3.9 0.8zm-81.4-0.8c-0.5-4-4.9-2.4-3.2-1.7 0.6 0 2 0.5 2 0.7 0.4 0.4-2.7-0.5-2.7 0-0.7 0.7 2.8 1.4 3.4 2 1 0.7 0.7 0.2 0.5-1zm-9.9 0.7c1.2-1.8 4.7-5.7 1.9-6.8-1.9 0.3-2.2-4.4-2.8-4.8-0.3 0-1.9 3-2.3 3.7l0.4 1.7c0.5 1.1 1.5 7.7 2.8 6.2zm70 0c2.5-1.1 6-2.3 0.5-1.8-0.1-0.6 3.6-0.4 2.1-1.5-2.3-1.6-4.7 4.9-2.6 3.3zm10.9-1.8c0.6-2.4 2.5-5.2 1-7.4-2.7-3.9-3.7-9.1-6.4-2.4-1.4 2.7-1.4 2.7-0.3 4.8 0.4 0.8 0.4 0.8 0.6 0.4-1-2.4 0.2-4.5 3.4-5.3 1.7-0.9 0.3 1.2 0 3.3-0.5 2.3-3.1 0.8-2.9 3.4 0.8 1.6 3.5 8.6 4.6 3.2zm-88.1-0.9c-0.1-0.4-3.4 1.2-1 0.5 0.6-0.2 1-0.4 1-0.5zm95.1 0.4c-0.5-0.5-2.5-0.7-0.7 0.1 1 0.2 1.1 0.2 0.7-0.1zm-94.6-1.3c0.6-1.1-1.6-0.3-0.9 0.2 0.2 0.3 0.6 0.2 0.9-0.2zm93.6 0c0.1-0.2-0.7-0.8-0.9-0.6-0.3 0.4 0.6 1.4 0.9 0.6zm-94.5-0.7c1.6-1-7.8-3.7-1.1-2.1 1.1 0.4 1.2 0.4 0.9-0.1-0.9-1.7-4.9-1.1-5.7 0 1.6 0.4 4.6 3.6 5.9 2.2zm96.7-0.1c1-0.6 1.7-1.4 2.8-1.8 2.2-0.5-0.9-1.3-2-1.5-0.9-0.6-4.3 1.8-2.6 1.6 0.1-0.3 4.7-1.5 2.7-0.4-0.9 0.2-3.1 1.4-3.2 1.7 0 0.9 1.5 1.2 2.3 0.4zm-73.3-1.8c1-2.3-3.9-5-1.8-2.5 1.2 1.3 1.2 1.8-0.1 0.7-3.8-2.6 1.4 4.4 1.9 1.8zm49.1 0c1.8-0.5 2.6-3.6 0.4-1.8-1.3 1.1-1.4 0.6-0.1-0.7 0.8-0.9 0.8-0.9 0.3-0.9-1.2 0.3-2 0.9-1.9 2.7-0.1 1.9-0.1 1.4 1.3 0.7zm-60.5-1.1c1.7-2-1.9-6.9-2.8-7.9-0.2 0-2.2 2.6-2.2 2.9 1.4 0.8 5.9 2.8 4.2 5-0.6 1.3 0.2 2 0.8 0zm-2.1-0.2c0.2-0.7-1.4-2.3-1.5-3 0.5-0.8 2.8 4.6 2.7 2.2 0.1-1.3-2.2-3-3.6-2.9-0.4 0 1.5 5.6 2.4 3.7zm75.9-0.3c3.2-5.2-1.7-3.5-2.5-0.6 0.1 2.3 2-2.6 2.6-2-0.2 0.6-3 4.8-0.1 2.6zm-80.2-5.6c1.1-1.6 1.6-2.4 2.4-3.4-4.3-4.9-3.9-2.9-4.3 2.4 0.3 3.9 0 4 1.9 1zm85.1-0.5c-0.1-5.8 0-7.8-4.1-2.9 0.3 0.7 2.8 3.9 3.2 4.7 1.2 2.2 0.7 0.5 0.9-1.8zm-88.7 1.1c-0.1-0.2-0.8-0.7-1.1-0.9 0.2 0.4 1.3 1.8 1.1 0.9zm91.1-0.3c0.2-0.4 0.2-0.4-0.2-0.2-0.9 0.4-0.1 1 0.2 0.2zm-93.1-1.3c-0.5-1.4-1.4-4-0.7-3.1 0.8 2.7 2.3 3.4 1.4 0.6-0.5-0.8-2.3-2.8-2.5-2.6-0.4 0.5 0 6.3 1.8 5.1zm95.5-0.3c3.7-8.8-3.4-2.7-1.8-0.4 0.4 0.3 1.3-3 1.6-2.6 0.1 0.2-0.1 1-0.4 1.8-1 2.4-0.4 1.9 0.6 1.2zm-75-4.4 1.2-0.6c-2.9-2.3-5.6 1-3 0.4 2.2-0.5-0.2 0.6-0.4 0.9 0 0.2 0.8-0.1 2.2-0.7zm54.8 0.2c-0.9-0.5-0.7-0.7 0.3-0.4 2.5 0.8-0.2-2.7-3-0.3 0.7 0.3 2.4 1.1 3 1.2 0.5-0.1 0.5-0.2-0.3-0.5zm-60.5-3.5c2.1-1.4 2.3-0.6 1-2.6-1.8-2.9-3.4-7.4-3.9-10.7-0.3-2.4-0.4-2.7-0.7-1.9-1.2 3.4-1.4 19 3.6 15.2zm67.6-0.2c1.9-2.7 1.9-13.3 0.7-15.5-0.7 4.5-2.7 10.7-5.1 14.5 0.9 0.4 3.8 3.8 4.4 1zm-75.3-1.6c1.6-1.7-0.6-0.5-1.4-0.4-1.1-0.2 2.5-1.3 1.6-1.9-1.1-0.8-3.3 1.9-4.5 2.2 1.2 0.6 3.2 1 4.3 0.1zm83.7 0.2 0.8-0.3c-0.7-0.4-1.5-0.9-2.1-1.5-2.8-2.1-3 0.1-0.4 0.9 0 0.3-0.4 0.3-1.2 0-3.2-0.8 1.2 2.3 2.9 0.9zm-71-3.8c2.7-0.6 0.9-1.4-0.9-2.2-1.1-0.3-3.4 0.1-1.2 0.6 1.4 0.3 2.1 1.3 0.6 0.8-3-0.8-0.5 2.3 1.5 0.8zm57.2 0c1.7-1.5-0.8-0.7-1.6-0.8-0.3-0.3 1.8-1 2.5-1.2-1.5-0.8-4 0.2-4.8 1.3 0.2 0.3 3 1.8 3.9 0.7zm-57.3-5.3c3.2-1.7-1.6-2-2.3-1.1-0.9 0.9-1.1 2.1 0.5 1.1 2.6-0.7-0.2 0.4-0.5 0.8 0.3 0.5 1 0.2 2.3-0.8zm57.3 0.9c-0.2-0.4-3-1.5-0.5-0.9 3.2 0.9-0.5-3.1-3.1-1 1.1 0.4 2.4 2.6 3.6 1.9zm-68.3-0.4c0-0.2-0.7-0.9-0.9-0.9-0.3 0.1 0.9 1.5 0.9 0.9zm77.8-0.7c0.4-0.6 0.2-0.6-0.4 0.1-0.7 0.9 0.2 0.4 0.4-0.1zm-79.7-0.6c-1.8-4.8-1.2-3.7 0.8-0.8 1-1.7-1.4-3.8-2.7-5.2 0 2.4-0.2 6.8 1.9 6zm81.8-0.2c0.8-0.6 0.8-4.2 0.8-5.8-3.3 2.2-4 8.8-0.9 2.4 0.7 0.8-2.3 4.9 0.1 3.4zm-10.5-3c-0.9-1.6-0.3-1.4 0.7 0.2 0.8 1.2 0.8 1.3 1 0.8 1-1.9-3.2-3.9-4.1-3.9 0.7 0.9 1.6 4.1 2.4 4.3 0.8 0.4 0.8 0 0-1.4zm-61.4 1.1c0.5-0.9 1.4-3.2 2-4.1-4.5 0.4-5.2 6.2-3 2.9 2.8-3.7-1.8 3.3 1 1.2z"/>
</svg>
