<?xml version="1.0" encoding="utf-8"?>
<!-- Generator: Adobe Illustrator 26.3.1, SVG Export Plug-In . SVG Version: 6.00 Build 0)  -->
<svg version="1.1"
	 id="svg5" xmlns:svg="http://www.w3.org/2000/svg" xmlns:sodipodi="http://sodipodi.sourceforge.net/DTD/sodipodi-0.dtd" xmlns:inkscape="http://www.inkscape.org/namespaces/inkscape"
	 xmlns="http://www.w3.org/2000/svg" xmlns:xlink="http://www.w3.org/1999/xlink" x="0px" y="0px" viewBox="0 0 28 28"
	 style="enable-background:new 0 0 28 28;" xml:space="preserve">
<style type="text/css">
	.st0{fill-rule:evenodd;clip-rule:evenodd;fill:#F30000;}
</style>
<sodipodi:namedview  bordercolor="#000000" borderopacity="0.25" id="namedview7" inkscape:current-layer="svg5" inkscape:cx="13.135639" inkscape:cy="14.138724" inkscape:deskcolor="#d1d1d1" inkscape:pagecheckerboard="0" inkscape:pageopacity="0.0" inkscape:showpageshadow="2" inkscape:window-height="1009" inkscape:window-maximized="1" inkscape:window-width="1920" inkscape:window-x="-8" inkscape:window-y="-8" inkscape:zoom="10.467706" pagecolor="#ffffff" showgrid="false">
	</sodipodi:namedview>
<path id="path2" class="st0" d="M4.6,10.1c-1,0.1-1.9,0.8-2.2,1.7c-0.5,1.4-0.5,3,0,4.4c0.3,0.9,1.2,1.6,2.2,1.7l8,0.8v2
	c0,0.3,0,0.7,0,1.1c0,0.3,0.1,1,0.6,1.6c0.6,0.7,1.4,1.1,2.3,1c0.8,0,1.4-0.5,1.6-0.6c0.3-0.2,0.5-0.5,0.8-0.7l0,0l5.6-5.1
	c0.4-0.4,0.8-0.8,1.1-1.1c0.3-0.4,0.7-0.9,0.9-1.5c0.3-0.9,0.3-1.8,0-2.7c-0.2-0.6-0.6-1.1-0.9-1.5c-0.3-0.3-0.7-0.7-1.1-1.1L18,4.9
	l0,0c-0.3-0.2-0.5-0.5-0.8-0.7c-0.2-0.2-0.8-0.6-1.6-0.6c-0.9,0-1.7,0.3-2.3,1c-0.5,0.6-0.6,1.3-0.6,1.6c0,0.3,0,0.7,0,1.1v2.1
	L4.6,10.1z M14.7,7.3c0-0.8,0-1.2,0.2-1.4c0.1-0.2,0.4-0.3,0.6-0.2c0.3,0,0.6,0.3,1.1,0.8l5.5,5.1c0.9,0.9,1.4,1.3,1.6,1.8
	c0.2,0.4,0.2,0.9,0,1.4c-0.2,0.5-0.6,0.9-1.6,1.8l-5.5,5.1c-0.6,0.5-0.9,0.8-1.1,0.8c-0.2,0-0.4-0.1-0.6-0.2
	c-0.2-0.2-0.2-0.6-0.2-1.4v-2.9c0-0.4,0-0.5-0.1-0.7c-0.1-0.1-0.2-0.2-0.3-0.3c-0.1-0.1-0.3-0.1-0.7-0.1l-8.9-0.9
	c-0.2,0-0.3-0.1-0.4-0.3c-0.3-1-0.3-2.1,0-3c0.1-0.2,0.2-0.3,0.4-0.3l8.8-0.8c0.4,0,0.5-0.1,0.7-0.1c0.1-0.1,0.2-0.2,0.3-0.3
	c0.1-0.1,0.1-0.3,0.1-0.7L14.7,7.3z"/>
</svg>
