<?xml version="1.0" encoding="UTF-8"?>
<svg enable-background="new 0 0 310 155" version="1.1" viewBox="0 0 310 155" xml:space="preserve" xmlns="http://www.w3.org/2000/svg">
<style type="text/css">
	.st0{fill:#FA4F3A;}
</style>

<path class="st0" d="m239.5 88v-6.8-6.6l-1.1-0.1c-0.6 0-5.7-0.1-11.4-0.1-10.3 0-12.1-0.1-13.8-0.5-1.6-0.4-3.3-1.1-4.2-1.7-0.5-0.3-0.9-0.6-1-0.6-0.2 0-2.2-1.7-2.7-2.4-1.5-1.7-2.7-4.3-3-6.6-0.2-1.3-0.1-3.9 0.2-5.1 0.4-1.6 1.1-3.4 1.7-4.6 0.3-0.6 0.6-1.1 0.6-1.2s1.5-2.2 3.6-4.9c1.1-1.4 2-2.7 2.2-2.9s0.9-1.2 1.7-2.3c0.8-1 2.5-3.2 3.7-4.9 1.2-1.6 2.8-3.7 3.5-4.6s2.2-2.8 3.3-4.4c1.2-1.6 2.4-3.2 2.8-3.6 0.6-0.8 3.5-4.6 4.8-6.3l0.7-1h26.2v39.7h16.6v17.6h-8.1c-5.8 0-8.1 0-8.3 0.1s-0.2 1.4-0.2 6.8v6.7h-8.8c-5 0.4-9 0.3-9 0.3zm0-41.8c0-6.6 0-10.4-0.1-10.4s-2.9 3.4-3.2 4c-0.2 0.4-3.1 4.1-3.7 4.9-0.3 0.4-0.6 0.8-0.7 1-0.1 0.3-1.5 2.1-3.3 4.4-0.5 0.7-1.8 2.4-3 4l-2 2.7h16v-10.6zm-155.9 41.8v-6.7-6.6l-0.5-0.1c-0.3-0.1-5.4-0.1-11.3-0.1-6 0-11.5-0.1-12.2-0.1-2.1-0.2-5-1.1-6.4-2-0.4-0.3-0.8-0.5-0.8-0.5-0.1 0-0.6-0.4-1.2-0.9-2.5-2.2-3.7-3.9-4.4-6.6-0.3-1.2-0.4-1.7-0.4-3.5s0-2.4 0.3-3.4c0.8-3.2 1.7-4.9 4.2-8.2 0.5-0.6 1.2-1.6 1.6-2.1 1.2-1.6 4.9-6.6 5.9-7.8 0.5-0.6 1.1-1.5 1.4-1.9s1.3-1.7 2.2-2.9 2.2-2.8 2.7-3.6c1.3-1.7 4.7-6.3 5.6-7.5 0.4-0.5 1-1.3 1.4-1.8s0.9-1.2 1.2-1.6 0.9-1.2 1.4-1.9l0.9-1.2h26.2v39.7h16.6v8.8c0 6.9 0 8.8-0.2 8.9-0.1 0-3.8 0.1-8.2 0.1s-8.1 0.1-8.1 0.1-0.1 3.1-0.1 6.8v6.7h-8.8c-5 0-9-0.1-9-0.1zm0-41.9c0-5.8 0-10.5-0.1-10.5s-1.5 1.7-3.2 4.1c-0.4 0.6-1.3 1.8-2 2.7s-1.4 1.8-1.4 1.9c-0.2 0.2-1.1 1.5-2.8 3.7-0.6 0.7-1.3 1.8-1.7 2.3-1.1 1.5-2.4 3.2-3.3 4.4-0.5 0.6-1 1.3-1.2 1.6l-0.3 0.4h16v-10.6zm73.6 44.2c-0.1 0-0.9-0.1-1.8-0.2s-2-0.2-2.4-0.3c-1.9-0.4-5-1.3-6.3-1.9-0.4-0.2-1.1-0.4-1.4-0.5s-0.9-0.4-1.3-0.6-1.1-0.6-1.5-0.8c-2.2-1.1-6-4-8.2-6.3-3.5-3.6-6.6-8.3-8.1-12.4-0.2-0.6-0.6-1.5-0.8-2-0.4-1.1-1.4-5.2-1.6-6.7-0.4-3.3-0.5-5.8-0.3-8.5 0.3-2.8 0.4-3.8 1.1-6.5 1.3-5.1 3.3-9.3 6.5-13.5 4.6-6.2 10.5-10.4 18-12.9 2.3-0.8 2.7-0.9 5.6-1.3 2.6-0.4 7.8-0.5 10.1-0.1 0.8 0.1 1.9 0.3 2.3 0.4 0.7 0.1 2.8 0.7 4.9 1.3 0.9 0.3 3.6 1.5 5.1 2.3 2.9 1.6 6.2 4.1 8.8 6.8 4.4 4.5 7.6 10.1 9.2 16.4 0.8 3 1 4.5 1.3 8.5 0.1 1.4-0.1 5.8-0.4 7.3-0.1 0.5-0.4 1.8-0.6 2.9-0.3 1.1-0.6 2.2-0.6 2.5-0.1 0.3-0.3 1.1-0.6 1.9-0.3 0.7-0.6 1.6-0.7 1.9-0.3 0.9-1.7 3.5-2.5 4.8-2.1 3.4-4.8 6.7-7.8 9.1-4.3 3.6-8.3 5.8-13.4 7.2-2 0.5-2.6 0.7-4.8 1-0.9 0.1-7.5 0.3-7.8 0.2zm6.6-18c5.4-1.3 9.9-4.7 12.4-9.5 0.3-0.5 0.6-1.1 0.6-1.2 0.6-1.1 1.5-4 1.8-5.9 0.5-3.3 0-7.2-1.4-10.8-0.8-2.1-3-5.3-4.6-6.7-1-0.9-2.4-2-2.5-2 0 0-0.5-0.3-0.9-0.6-1-0.6-3.4-1.7-5.1-2.2-1.1-0.3-1.5-0.3-4.2-0.3-2.9 0-3 0-4.4 0.4-0.8 0.2-1.7 0.6-2.1 0.7-0.4 0.2-1 0.4-1.4 0.6-1 0.4-3 1.8-4.2 2.8-1.1 0.9-2.3 2.4-3.3 3.8-0.8 1.2-2.4 4.3-2.4 4.7 0 0.1-0.2 0.7-0.3 1.3-1.8 5.5-0.5 12.5 3.3 17.6 3.2 4.3 7.5 6.8 13 7.5 1.2 0.2 4.6 0 5.7-0.2zm-58.1 45.1c-0.3-0.3-0.2-0.9 0.2-1.1 0.6-0.3 2.9-0.4 3.3-0.1 0.8 0.4 0.4 1.3-0.6 1.2-0.3 0-1.1 0-1.7 0.1-0.7 0-1.1 0-1.2-0.1zm115 0.2c-0.3-0.4-0.2-0.8 0.3-1 0.9-0.4 3-0.7 3.5-0.5 0.3 0.1 0.3 1 0.1 1.1-0.1 0-0.7 0.2-1.4 0.3s-1.5 0.2-1.7 0.3c-0.5 0-0.6 0-0.8-0.2zm-36.3-0.1c-0.3-0.7 0.2-1.1 2.2-1.4 1.2-0.2 1.7-0.1 1.8 0.4 0.1 0.6-0.2 0.8-1.6 1-2.3 0.4-2.2 0.4-2.4 0zm-20 0.1c-0.4-0.7 0-1 1.6-1.4 1.4-0.3 2-0.3 2.3 0 0.6 0.6 0.1 1-1.4 1.3-2.4 0.4-2.3 0.4-2.5 0.1zm-24.1 0.1c-0.1-0.1-0.2-0.3-0.2-0.6 0-0.4 0.3-0.6 1.7-0.9 1.8-0.4 2.5-0.2 2.4 0.6 0 0.3-0.1 0.4-0.5 0.5-3.2 0.6-3.2 0.6-3.4 0.4zm52.6 0.7c-0.6-0.1-2.7-0.9-2.9-1.1-0.3-0.2-0.2-0.8 0.1-1 0.5-0.3 3.4 0.7 3.6 1.2 0.1 0.2-0.2 0.9-0.4 1 0 0-0.2 0-0.4-0.1zm-79.5 0.3c-0.3-0.1-0.8-0.4-1.2-0.5-0.8-0.3-1.2-0.7-1.1-1.2 0.2-0.6 1.3-0.5 3 0.4 0.7 0.3 0.8 0.5 0.8 0.8 0.1 0.7-0.6 1-1.5 0.5zm-12.8 0.8c-0.2-0.3-0.2-0.4 0-0.7 0.3-0.5 2.5-1.8 3-1.8 0.4 0 0.6 0.3 0.6 0.6 0 0.4-0.3 0.6-1.2 1.1-0.4 0.2-1 0.5-1.3 0.7-0.7 0.5-0.8 0.5-1.1 0.1zm109.9 0.6c-0.4-0.1-0.4-0.4-0.4-2 0-1.8 0.1-2.2 0.7-2.2 0.7 0 0.7 0.2 0.7 2.1 0 1.5 0 1.8-0.3 2-0.2 0.3-0.4 0.3-0.7 0.1zm-56.5-0.1c-0.3-0.3-0.2-3.8 0-3.9 0.3-0.2 0.8-0.1 1 0.1s0.2 0.5 0.2 1.9c0 1.5-0.1 1.7-0.3 1.9-0.3 0.3-0.6 0.3-0.9 0zm-24.3 0.1c-0.1-0.1-0.2-0.8-0.2-1.9 0-1.9 0.1-2.2 0.8-2.2 0.6 0 0.7 0.2 0.7 2.1 0 1.5 0 1.8-0.3 2s-0.7 0.2-1 0zm50 0.1c-0.3-0.4-0.1-0.7 0.6-1.3 1.1-0.9 2.1-1.4 2.4-1.3 0.4 0.1 0.6 0.5 0.4 0.9-0.2 0.3-2.6 2-3 2-0.1 0-0.3-0.1-0.4-0.3zm36.2 0.4c-0.1-0.1-0.2-0.3-0.2-0.6s0.2-0.6 1-1.2c1.3-1.1 1.8-1.4 2.2-1.2 0.2 0.1 0.3 0.3 0.3 0.6 0 0.4-0.2 0.6-1.4 1.5-1.2 1.1-1.6 1.3-1.9 0.9zm-56.2 0c-0.5-0.5-0.3-0.9 0.8-1.7 0.5-0.5 1.2-1 1.5-1.1 0.5-0.3 0.5-0.3 0.9 0 0.6 0.4 0.5 0.8-0.4 1.5-0.4 0.3-1 0.8-1.4 1.1-0.7 0.5-1.1 0.5-1.4 0.2zm-24.1 0.1c-0.4-0.2-0.5-0.6-0.3-0.9 0.2-0.4 1.9-1.8 2.5-2 0.4-0.2 0.8-0.1 1 0.3s0 0.7-1.2 1.6c-0.6 0.4-1.1 0.9-1.2 1-0.2 0.1-0.4 0.2-0.8 0zm60.4 0c-1.3-1.3-1.5-1.8-0.8-2.1 0.3-0.1 0.4-0.1 0.9 0.3 0.9 0.7 2 2 2 2.3s-0.4 0.7-0.7 0.7c-0.1 0-0.7-0.5-1.4-1.2zm-78.6 1.3c-0.3-0.4-0.8-0.9-1.1-1.2-0.7-0.6-0.8-1.1-0.3-1.4s0.9 0 1.9 1c1.1 1.2 1.2 1.6 0.9 2-0.4 0.5-0.8 0.3-1.4-0.4zm-20.1 1.9c-0.3-0.1-0.6-0.5-0.5-0.8 0.1-0.4 1.6-2.5 1.9-2.7 0.2-0.1 0.4-0.1 0.6-0.1 0.7 0.2 0.6 0.8-0.3 1.9-0.3 0.4-0.7 0.9-0.9 1.2-0.3 0.5-0.4 0.6-0.8 0.5zm79.3 1c-0.1-0.2-0.2-0.4-0.2-0.5 0-0.3 1.2-2.4 1.5-2.8 0.4-0.4 0.8-0.4 1.1-0.1s0.3 0.3 0 0.9c-0.7 1.4-1.3 2.4-1.4 2.6-0.4 0.3-0.7 0.3-1-0.1zm35.8 0.2c-0.3-0.4-0.2-0.5 0.5-1.7 0.8-1.5 1.2-1.9 1.7-1.8 0.4 0 0.4 0.1 0.5 0.5 0 0.4-0.1 0.7-0.9 1.9-0.9 1.4-1.3 1.7-1.8 1.1zm-55.9 0.1c-0.5-0.2-0.5-0.5-0.2-1.2 0.4-0.9 1.6-2.5 1.9-2.6 0.4-0.1 0.9 0.3 0.9 0.7 0 0.5-1.8 3.2-2.1 3.2-0.2 0.1-0.3 0-0.5-0.1zm-24.5 0c-0.4-0.4-0.1-1.3 1-2.8 0.6-0.8 0.7-0.9 1.1-0.9 0.3 0 0.5 0.1 0.6 0.4s0 0.6-0.9 1.9c-0.8 1.2-1.1 1.5-1.3 1.5-0.1 0.1-0.4 0-0.5-0.1zm78.5 0.6c-0.4-0.1-0.4-0.4-0.4-2 0-1.8 0.1-2.2 0.7-2.2 0.7 0 0.7 0.2 0.7 2.1 0 1.5 0 1.8-0.3 2-0.2 0.3-0.4 0.3-0.7 0.1zm-56.5-0.1c-0.2-0.2-0.2-2.2-0.2-3.7 0-0.1 0.2-0.2 0.3-0.3 0.3-0.2 0.8 0 1 0.3s0.1 3.1-0.1 3.5c-0.1 0.4-0.7 0.6-1 0.2zm-24.2 0c-0.2-0.2-0.2-0.6-0.2-1.9 0-0.9 0.1-1.7 0.1-1.8 0.1-0.1 0.2-0.2 0.4-0.3 0.3-0.1 0.4-0.1 0.6 0.1 0.3 0.3 0.3 0.5 0.3 2 0 1.8-0.1 2.2-0.7 2.2-0.2-0.1-0.4-0.2-0.5-0.3zm69.9 1.1c-0.4-0.1-0.5-0.3-0.7-1.1-0.1-0.4-0.3-0.9-0.4-1.2-0.4-0.9-0.4-1.4 0.2-1.6 0.2-0.1 0.4 0 0.6 0.2 0.4 0.4 1.2 2.4 1.2 3-0.1 0.4-0.4 0.8-0.9 0.7zm-81.6 2.4c-0.1-0.1-0.2-0.3-0.2-0.5 0-0.5 0.3-0.6 1.3-0.6s1.2-0.1 0.7-0.6c-0.1-0.2-0.4-0.8-0.5-1.5-0.1-0.6-0.3-1.3-0.4-1.4-0.3-0.5 0.5-1.1 1-0.8 0.2 0.1 0.7 1.3 0.9 2.1 0.1 0.4 0.2 0.8 0.2 1 0.1 0.2 0 0.4-0.2 0.6-0.3 0.3-0.3 0.6 0 0.6s0.4 0.7 0.1 1c-0.2 0.2-0.4 0.3-1.6 0.3-0.7 0-1.2-0.1-1.3-0.2zm-5.6 0c-0.2-0.2-0.2-0.9 0.1-1 0.4-0.2 3.5-0.1 3.7 0.1s0.2 0.6-0.1 0.9c-0.2 0.2-0.6 0.2-1.9 0.2-1.1 0-1.7-0.1-1.8-0.2zm-5.6-0.2c-0.2-0.3-0.2-0.4 0-0.6 0.2-0.3 0.4-0.3 2-0.3 1.8 0 2.1 0.1 2.1 0.6 0 0.6-0.3 0.6-2.1 0.6-1.8 0.1-1.8 0.1-2-0.3zm-5.6 0.1c-0.2-0.2-0.2-0.3-0.1-0.6l0.2-0.4h1.8c1.9 0 2.2 0.1 2.2 0.6 0 0.6-0.4 0.7-2.1 0.7-1.5 0-1.7-0.1-2-0.3zm-5.7 0c-0.4-0.3-0.4-0.4-0.3-1.2 0.1-1.2 0.4-2.3 0.6-2.6 0.3-0.3 0.9-0.3 1 0.1 0.1 0.2 0.1 0.6-0.1 1.3-0.1 0.6-0.2 1.1-0.1 1.2 0.1 0.2 0.4 0.2 1.4 0.2 1.4 0 1.7 0.1 1.7 0.6 0 0.6-0.4 0.7-2.2 0.7-1.4 0-1.6-0.1-2-0.3zm79.9 1.1c-0.2-0.3-0.2-0.6 0-1.8 0.2-1.6 0.4-2.1 1.1-1.9 0.5 0.1 0.6 0.4 0.4 1.4-0.1 0.5-0.1 1.1-0.1 1.5 0 0.8-0.2 1.2-0.7 1.2-0.4-0.1-0.6-0.2-0.7-0.4zm35 1.3c-0.4-0.1-0.4-0.4-0.4-2.1s0.1-2.1 0.7-2.1c0.1 0 0.3-0.2 0.3-0.4 0.2-0.4 0.4-0.6 0.9-0.4 0.6 0.1 0.6 0.6 0.1 1.9-0.3 0.6-0.5 1.5-0.5 1.9-0.2 1.1-0.5 1.5-1.1 1.2zm-56.4-0.1c-0.3-0.2-0.3-0.3-0.2-1.8v-1.9c0-0.1 0.2-0.3 0.4-0.4s0.5-0.3 0.5-0.4c0.1-0.5 1.2-0.5 1.4 0 0 0.2-0.1 0.7-0.4 1.3s-0.5 1.5-0.6 2c0 1.3-0.4 1.7-1.1 1.2zm-24.1 0.1c-0.4-0.1-0.4-0.4-0.4-2.1s0.1-2.1 0.6-2.1c0.1 0 0.3-0.2 0.4-0.4 0.2-0.5 0.6-0.5 1.1-0.3 0.4 0.2 0.3 0.6-0.2 2-0.4 0.8-0.5 1.4-0.5 1.9 0 0.9-0.4 1.3-1 1zm69.4 1.2c-0.1-0.1-0.1-0.5 0-1.5 0.1-0.7 0.1-1.6 0.1-1.9 0-0.7 0.3-1.1 0.7-1.1 0.5 0 0.7 0.4 0.7 1.1 0 0.9-0.3 3-0.5 3.3-0.1 0.4-0.8 0.4-1 0.1zm-102.9 1.8c-0.3 0-0.8-1-1.1-2.3-0.2-1-0.2-1.3 0.2-1.5 0.6-0.4 0.9 0 1.2 1.4 0.4 1.9 0.5 2.2 0.2 2.3-0.1 0.1-0.4 0.2-0.5 0.1zm80.3 1c-0.3-0.4-1-2.5-1-3 0-0.4 0.6-0.7 1-0.5 0.2 0.1 1.3 2.7 1.3 3.1 0 0.2-0.5 0.7-0.8 0.7-0.1 0.1-0.3 0-0.5-0.3zm33.4 1.6c-0.1-0.2-0.1-1-0.1-1.9s0.1-1.7 0.1-1.9c0.2-0.3 0.6-0.4 1-0.1 0.2 0.1 0.3 0.3 0.3 2s0 1.9-0.3 2c-0.4 0.2-0.8 0.2-1-0.1zm-56.2 0.1c-0.1-0.1-0.2-0.7-0.2-2 0-1.9 0.1-2.1 0.7-2.1s0.8 0.5 0.8 2.1c0 1.1-0.1 1.6-0.2 1.8-0.3 0.4-0.8 0.4-1.1 0.2zm-24.3-0.1c-0.1-0.2-0.1-1-0.1-1.9 0-1.3 0-1.7 0.2-1.9 0.3-0.3 0.5-0.3 0.9-0.1 0.2 0.1 0.3 0.3 0.3 1.9 0 1.4 0 1.8-0.2 2-0.3 0.3-0.9 0.3-1.1 0zm67.6 0.8c-0.3-0.3-0.2-0.8 0.6-2.2 0.9-1.4 1.2-1.7 1.6-1.3 0.4 0.3 0.3 0.6-0.2 1.8-0.8 1.6-1.5 2.2-2 1.7zm-98.1 1.3c-0.3-0.1-1.6-1.8-1.9-2.4-0.5-1.1 0.7-1.5 1.4-0.4 0.2 0.3 0.6 0.8 0.9 1.2 0.7 0.8 0.7 0.9 0.4 1.4-0.2 0.4-0.3 0.4-0.8 0.2zm17.2 0.1c-0.4-0.4-0.3-0.8 0.3-1.4 0.3-0.3 0.7-0.8 1-1.2 0.5-0.7 1-1 1.5-0.6 0.3 0.3 0.2 0.8-0.4 1.6-1.4 1.7-1.9 2-2.4 1.6zm63.1 0.1c-1.4-1.5-1.7-2.2-0.9-2.4 0.4-0.1 0.6 0 1.8 1.3 0.9 0.9 1 1.2 1 1.5s-0.1 0.4-0.5 0.4c-0.6 0-0.7-0.1-1.4-0.8zm13.6 2.1c-0.1-0.1-0.1-0.8 0-1 0.2-0.3 2.5-1.8 2.8-1.8 0.5 0 0.7 0.2 0.7 0.6 0 0.7-2.1 2.3-3 2.3-0.2 0-0.5 0-0.5-0.1zm-81.4 0.6c-0.1-0.1-0.2-0.3-0.2-0.3 0-0.3 0.5-0.7 0.8-0.8 0.2 0 0.8-0.3 1.4-0.7 0.9-0.5 1.1-0.6 1.4-0.4 0.8 0.5 0.5 1.1-1.1 1.8-1.3 0.7-1.9 0.8-2.3 0.4zm-8.9-0.2c-1.5-0.8-1.8-1.1-1.7-1.6 0-0.3 0.1-0.5 0.4-0.6s0.5-0.1 1 0.3c0.3 0.2 0.9 0.6 1.4 0.7 0.9 0.3 1.2 0.7 0.9 1.3-0.3 0.5-1 0.4-2-0.1zm81.6 0.6c-1.9-0.6-2.7-1.4-1.7-1.9 0.3-0.1 0.6-0.1 2 0.4 1.5 0.5 1.6 0.6 1.7 1 0.1 0.5-0.3 0.8-0.7 0.8-0.3-0.1-0.8-0.2-1.3-0.3zm25.8 0.3c-0.2-0.3-0.2-3-0.1-3.5 0.1-0.4 0.6-0.5 1-0.3 0.3 0.1 0.3 0.3 0.3 2s0 1.9-0.3 2-0.7 0.1-0.9-0.2zm-22.3 0.1c-0.3-0.3-0.2-0.9 0.1-1.1 0.2-0.1 0.6-0.1 0.9-0.1s1-0.1 1.5-0.2c0.8-0.2 0.9-0.1 1.2 0.1 0.2 0.2 0.3 0.4 0.1 0.7-0.2 0.4-0.3 0.5-1.6 0.7-1.2 0.1-2 0.1-2.2-0.1zm-33.8 0c-0.1-0.1-0.2-0.6-0.2-2 0-2 0-2.1 0.7-2.1 0.6 0 0.8 0.5 0.8 2.1 0 1.1-0.1 1.6-0.2 1.8-0.3 0.3-0.8 0.4-1.1 0.2zm-24.4 0c-0.1-0.1-0.2-0.8-0.2-1.9 0-1.9 0.1-2.2 0.7-2.2s0.7 0.4 0.7 2.1c0 1.3 0 1.7-0.2 1.9-0.2 0.3-0.7 0.3-1 0.1zm-23.3-0.1c-0.2-0.2-0.3-0.3-0.2-0.6 0.1-0.2 0.2-0.4 0.3-0.5 0.3-0.2 3.4-0.1 3.6 0.1 0.3 0.3 0.2 0.9-0.1 1.1-0.5 0.2-3.2 0.2-3.6-0.1z"/>
</svg>
