<?xml version="1.0" encoding="UTF-8"?>
<svg version="1.1" viewBox="0 0 256 256" xmlns="http://www.w3.org/2000/svg">
<path d="m95.5 169.1c-4.8008-2.2031-6.8984-4.4023-9-9.4023-2.1992-5.3984-2.1992-58 0-63.398 2.1016-5 4.1992-7.1992 9-9.4023 3.6016-1.6992 7-1.8984 32.301-1.8984 23.199 0 28.898 0.30078 31.898 1.5 5 2.1016 7.1992 4.1992 9.4023 9 1.6992 3.6016 1.8984 7 1.8984 32.5s-0.19922 28.898-1.8984 32.5c-2.2031 4.8008-4.4023 6.8984-9.4023 9-3 1.1992-8.6992 1.5-31.898 1.5-25.301 0-28.699-0.19922-32.301-1.8984zm19.102 85.898c-30.203-3.8008-55.902-16.199-76.703-36.898-18.098-18.102-29.598-39.602-35-65.402-3.0977-14.301-3.0977-35.098 0-49.398 10.902-51.5 48.902-89.5 100.4-100.4 14.301-3.0977 35.098-3.0977 49.398 0 45.102 9.5 80.301 40 95.699 82.902 9.4023 26.199 9.4023 58.199 0 84.398-3.6992 10.301-10.297 23-16.5 31.801-6.7969 9.6992-21.297 24.102-31.199 30.801-14.598 10-35.301 18.5-52 21.199-9.1992 1.5-26.301 2-34.098 1zm50.199-69.301c9.5977-3.6992 18.098-12.598 21.398-22.199 1.9023-5.6992 1.9023-65.301 0-71-3.3984-9.8984-12.801-19.301-22.699-22.699-5.6992-1.9023-65.301-1.9023-71 0-6.1016 2.0977-13.801 7.6992-17.398 12.699-6.2031 8.6016-6.4023 10.199-6.9023 41.602-0.39844 30.199 0.19922 37 3.9023 44.598 4.1992 8.8008 14 16.199 24 18.301 2.3984 0.5 17.898 0.80078 34.398 0.60156 25.301-0.20312 30.699-0.5 34.301-1.9023z" fill="#f00"/>
</svg>
