<?xml version="1.0" encoding="utf-8"?>
<!-- Generator: Adobe Illustrator 26.5.0, SVG Export Plug-In . SVG Version: 6.00 Build 0)  -->
<svg version="1.1"
	 id="svg5" xmlns:inkscape="http://www.inkscape.org/namespaces/inkscape" xmlns:svg="http://www.w3.org/2000/svg" xmlns:sodipodi="http://sodipodi.sourceforge.net/DTD/sodipodi-0.dtd" inkscape:version="1.2.1 (9c6d41e410, 2022-07-14)"
	 xmlns="http://www.w3.org/2000/svg" xmlns:xlink="http://www.w3.org/1999/xlink" x="0px" y="0px" viewBox="0 0 28 28"
	 style="enable-background:new 0 0 28 28;" xml:space="preserve">
<style type="text/css">
	.st0{fill:#FF0000;}
</style>
<sodipodi:namedview  bordercolor="#000000" borderopacity="0.25" id="namedview7" inkscape:current-layer="svg5" inkscape:cx="14" inkscape:cy="14.016888" inkscape:deskcolor="#d1d1d1" inkscape:pagecheckerboard="0" inkscape:pageopacity="0.0" inkscape:showpageshadow="2" inkscape:window-height="1009" inkscape:window-maximized="1" inkscape:window-width="1920" inkscape:window-x="-8" inkscape:window-y="-8" inkscape:zoom="29.607143" pagecolor="#ffffff" showgrid="false">
	</sodipodi:namedview>
<path id="path2" class="st0" d="M10.1,25.5C8.9,25.4,8,25,7.2,24.1C6,22.8,5.9,22.3,5.9,15V9.9L5.2,9.8c-0.5-0.1-0.7-0.2-1-0.4
	C3.7,8.9,3.6,8.5,3.6,7.2c0-0.9,0.1-1.1,0.3-1.6c0.6-1,1.3-1.4,2.9-1.5L8,4.1l0.3-0.4c0.4-0.6,1.2-1,1.9-1.2c0.8-0.1,6.7-0.1,7.5,0
	c0.7,0.1,1.5,0.6,1.9,1.2L20,4.1l1.2,0.1c1.6,0.1,2.4,0.5,3,1.7c0.2,0.4,0.3,2.3,0.2,2.8c-0.2,0.6-0.8,1-1.5,1.1l-0.7,0.1V15
	c0,7.3-0.1,7.8-1.3,9.1c-0.8,0.9-1.6,1.2-3.1,1.4C16.4,25.6,11.5,25.6,10.1,25.5z M18.3,23.3c0.6-0.2,1.3-0.9,1.5-1.5
	c0.1-0.3,0.1-2.3,0.1-6.2V9.8H8.1v5.8c0,3.8,0,5.9,0.1,6.2C8.4,22.4,9,23,9.6,23.2C10.1,23.4,17.6,23.5,18.3,23.3z M22.3,7.3
	c0-0.2-0.1-0.5-0.1-0.6C22,6.4,22,6.4,20.6,6.3c-1.7-0.1-2.1-0.2-2.4-1C18,5,17.9,4.8,17.7,4.7c-0.3-0.2-7.2-0.2-7.5,0
	c-0.1,0.1-0.3,0.4-0.4,0.6c-0.4,0.8-0.7,0.9-2.4,1C6,6.4,6,6.4,5.8,6.7C5.8,6.8,5.7,7.1,5.7,7.3v0.4h16.6V7.3z"/>
</svg>
