<?xml version="1.0" encoding="UTF-8"?>
<svg version="1.1" viewBox="0 0 256 256" xmlns="http://www.w3.org/2000/svg">
<path d="m92.602 232.9c-11.402-1-19.203-4.5977-26.5-12.398-11.402-12-12-16.602-12.102-83.602v-46.598l-6-0.69922c-4.6992-0.60156-6.8008-1.4023-9.5-3.7031-4.6992-4.1992-5.8008-8.3984-5.3008-19.898 0.40234-8.3008 0.90234-10.5 3.1016-14.301 5.5-9.3984 11.699-12.5 26.699-13.398l10.5-0.60156 3-4.0977c3.8984-5.2031 10.602-9.3008 17.398-10.602 7-1.3008 61.203-1.3008 68.203 0 6.7969 1.3008 13.5 5.3984 17.398 10.602l3 4.0977 10.699 0.60156c15.102 0.89844 22.102 4.8008 27.5 15.098 2.1016 4.1016 3 20.902 1.4023 25.902-1.9023 5.8008-7 9.5-14.102 10.301l-6 0.69922v46.598c-0.10156 67-0.69922 71.602-12.102 83.602-7.6992 8.1016-14.797 11.301-27.898 12.5-12.301 1.1016-56.602 1.1016-69.398-0.10156zm74.898-20c5.1992-1.5 11.898-8.1992 13.398-13.398 0.70312-2.6992 1.1016-21.199 1.1016-56.699v-52.801h-108v52.801c0 34.5 0.39844 54 1.1016 56.598 1.3984 5 7.2969 11.301 12.398 13.102s73.699 2.1016 80 0.39844zm36.5-146.1c0-1.8008-0.60156-4.4023-1.3008-5.8008-1.1992-2.3984-1.5977-2.5-14.199-3-15.398-0.60156-18.898-2.1016-22.398-9.5-1.1016-2.3984-2.9023-4.8984-4-5.5-3.1016-1.6016-66.203-1.3984-68.5 0.30078-1 0.69922-2.8008 3.3008-4 5.6992-3.6016 7.1016-6.8008 8.3984-22.102 9-12.602 0.5-13 0.60156-14.199 3-0.69922 1.3984-1.3008 4-1.3008 5.8008v3.1992h152z" fill="#f00"/>
</svg>
