<?xml version="1.0" encoding="utf-8"?>
<!-- Generator: Adobe Illustrator 26.5.0, SVG Export Plug-In . SVG Version: 6.00 Build 0)  -->
<svg version="1.1"
	 id="svg5" xmlns:svg="http://www.w3.org/2000/svg" xmlns:sodipodi="http://sodipodi.sourceforge.net/DTD/sodipodi-0.dtd" xmlns:inkscape="http://www.inkscape.org/namespaces/inkscape"
	 xmlns="http://www.w3.org/2000/svg" xmlns:xlink="http://www.w3.org/1999/xlink" x="0px" y="0px" viewBox="0 0 28 28"
	 style="enable-background:new 0 0 28 28;" xml:space="preserve">
<style type="text/css">
	.st0{fill:#FF0000;}
</style>
<path id="path2" class="st0" d="M5.4,23.2c-1.2-0.2-2.2-0.8-2.7-1.9c-0.2-0.5-0.2-0.6-0.2-7.2s0-6.7,0.2-7.2c0.5-1.1,1.4-1.8,2.8-2
	c1.3-0.2,5.7-0.1,6.1,0c0.2,0.1,0.8,0.6,1.4,1.2l1,1.1h4.3c4.7,0,5,0,5.8,0.6c0.2,0.2,0.6,0.5,0.7,0.7c0.6,0.9,0.6,0.9,0.6,6.8
	c0,5.4,0,5.5-0.2,6c-0.5,1.1-1.4,1.8-2.8,2C21.5,23.3,6.4,23.3,5.4,23.2z M18.3,20.1l0.4-0.4v-3.3l1.7,0c1.6,0,1.7,0,2-0.3
	c0.4-0.4,0.6-0.9,0.3-1.4c-0.3-0.7-0.7-0.8-2.5-0.8h-1.5v-3.3l-0.3-0.3c-0.2-0.2-0.4-0.4-0.6-0.4c-0.4-0.1-0.8,0-1.2,0.4l-0.3,0.3
	v3.3h-1.5c-1.8,0-2.1,0.1-2.5,0.8c-0.2,0.5-0.1,1,0.3,1.4c0.3,0.2,0.4,0.3,2,0.3l1.7,0v3.3l0.4,0.4c0.3,0.3,0.5,0.4,0.8,0.4
	S18,20.4,18.3,20.1z"/>
</svg>
