<?xml version="1.0" encoding="UTF-8"?>
<svg version="1.1" viewBox="0 0 256 256" xmlns="http://www.w3.org/2000/svg">
<path d="m49.199 211.9c-11.398-1.3984-19.898-7.5977-24.598-17.797-2.1016-4.5-2.1016-5.4023-2.1016-66.102 0-60.699 0-61.602 2.1016-66.102 4.8984-10.5 13.098-16.297 25.5-17.898 12-1.5 52.297-1.3008 56.199 0.39844 1.8008 0.80078 7.5 5.7031 12.699 11l9.5 9.6016h39.602c43 0 45.297 0.19922 53.098 5.6016 2.1992 1.5 5.1992 4.5977 6.6992 6.7969 5.6016 8.2031 5.6016 8 5.6016 62.102 0 49 0 50.102-2.1016 54.602-4.8984 10.5-13.098 16.297-25.5 17.898-8.8984 1.1016-147.7 1.1016-156.7-0.10156zm118.4-28.297 3.3984-3.4023v-30.098l15.398-0.30078c14.703-0.30078 15.602-0.40234 18-2.6992 4.1016-3.9023 5.1016-8.4023 2.9023-12.902-3-6.0977-6.5-7.1992-22.5-7.1992h-13.801v-30.199l-2.8984-2.8008c-1.6016-1.6016-4-3.1992-5.5-3.6016-3.8008-0.89844-7.4023 0.30078-10.703 3.6016l-2.8984 2.8008v30.199h-13.699c-16.102 0-19.602 1.1016-22.602 7.1992-2.1992 4.5-1.1992 9 2.9023 12.902 2.3984 2.2969 3.2969 2.3984 18 2.6992l15.398 0.30078v30.098l3.3984 3.4023c2.8008 2.7969 4.2031 3.3984 7.6016 3.3984s4.8008-0.60156 7.6016-3.3984z" fill="#f00"/>
</svg>
