<?xml version="1.0" encoding="utf-8"?>
<!-- Generator: Adobe Illustrator 26.3.1, SVG Export Plug-In . SVG Version: 6.00 Build 0)  -->
<svg version="1.1"
	 id="Слой_1" xmlns:svg="http://www.w3.org/2000/svg" xmlns:inkscape="http://www.inkscape.org/namespaces/inkscape" inkscape:version="1.1.2 (b8e25be833, 2022-02-05)" xmlns:sodipodi="http://sodipodi.sourceforge.net/DTD/sodipodi-0.dtd" sodipodi:docname="Logo.svg"
	 xmlns="http://www.w3.org/2000/svg" xmlns:xlink="http://www.w3.org/1999/xlink" x="0px" y="0px" viewBox="0 0 612 241"
	 style="enable-background:new 0 0 612 241;" xml:space="preserve">
<style type="text/css">
	.st0{opacity:0.7;fill:#97D0F3;fill-opacity:0.6667;enable-background:new    ;}
</style>
<sodipodi:namedview  bordercolor="#666666" borderopacity="1.0" id="namedview8" inkscape:current-layer="Слой_1" inkscape:cx="305.77533" inkscape:cy="95.602211" inkscape:pagecheckerboard="0" inkscape:pageopacity="0.0" inkscape:pageshadow="2" inkscape:window-height="1009" inkscape:window-maximized="1" inkscape:window-width="1920" inkscape:window-x="-8" inkscape:window-y="-8" inkscape:zoom="1.3179612" pagecolor="#ffffff" showgrid="false">
	</sodipodi:namedview>
<path id="path4" class="st0" d="M475,7.9c0-4.9-0.1-4.8,2.3-2.7c1.4,1.3,1.5,1.5,1.2,1.8c-0.1,0.8-2.3-1.6-2.5-1.5
	c-0.3,1-0.1,1.3,1.2,2.7c2.8,2.8-0.2,1.4-1.3,0.1C476,11.4,474.8,15.1,475,7.9L475,7.9z M464.3,12.2c1.7-2.8,0.9-1.9-1-3.8
	c0.5-0.7,1.7-3.6,3.1-2c2.4,1.4,1.9,1.3,0.6,3.4c2.3,1.6,2.5,2.8-0.6,1C466,10.8,464.4,13.4,464.3,12.2z M466.6,8.6l0.3-0.6
	c-0.4-0.3-1.1-0.8-1.5-1.1c-0.2,0.3-1,1.1-1,1.3C464.9,8.5,466.2,9.8,466.6,8.6z M487.2,13.5c-0.4-0.9,0.9-2.6-0.4-3.5
	c-1.4-3.3-1.4,4.4-2.6,3.2c-0.3,0.4,1.3-9.2,2.2-8.2c0.5,1.8-0.7,3.4,1.3,4.7c0.6-1,1-5.3,1.9-3.6C489.4,6.6,488.1,14.4,487.2,13.5z
	 M456.3,16.1c-0.1-0.1-0.5-0.9-0.8-1.7c0-1.9-3.9-2-3.2-3.1c0.2-0.2,1.6,0.4,1.8,0.3c0.1-0.3-1.5-3.4-0.7-3c0.7-0.3,1.7,4.3,3.2,4
	c1.2,0.4,1.5,0.7,1.3,1.1c-0.1,0.2-0.3,0.2-0.8,0C454.7,12.4,458.7,17.4,456.3,16.1z M500.3,18.9c-0.8,0.3,5.6-8.4,5.1-6.2
	c-0.3,1.2-0.8,0.9-0.3,2.9c0.4,2.5,0.2,1.9-1.8,2.2C501.2,17.7,501.4,19.5,500.3,18.9L500.3,18.9z M504.2,16.1
	c-0.1-1.2-0.2-1.2-1.5,0.5C502.1,17.2,504.8,17.1,504.2,16.1z M509.4,27c0.9-2.1,2.4-1.3,1.4-4.5c-0.3-0.1-3.3,3.4-3.6,2.1
	c-0.2-0.2,8.5-8.2,5.4-3.8c-1.1,0.8-0.6,2.1-0.5,3.4c0.6-0.5,3.7-3.6,3.5-2.2C515.4,22.3,510,28.1,509.4,27L509.4,27z M436,28.4
	c-8.3-5.7-0.1-1.1-1.3-5.5c-0.1-0.9-0.1-1,0.2-0.9c0.7,0.1,6.9,4.6,6.9,5c0.5,1.9-7.4-5.3-5.9-2.6c0.5,1.3-1,1-1.6,1.6
	C436.3,27.2,443.9,33.8,436,28.4L436,28.4z M516.8,33.2c-0.1-0.1-0.1-0.8,0-1.5c1.1-3.2-3.2,1.5-3.7,0.2c0.1-0.9,6.6-4.1,7-4.3
	c1.3-0.3-2.1,8-1.2,3c0.8-2.3-0.9-1.1-1,0.3C517.4,33,517.6,33.7,516.8,33.2z M433.6,37.1c-1.5-1.4-8.2,1.3-3.3-1.3
	c-5.3-2.3-1.4-2,1.4-0.5c1.7-1,4.7-0.9,1.3,0.5C435,36.4,437.7,38.8,433.6,37.1z M486,41.3c-0.8-0.7,0.3-2,1.1-1.3
	C488.2,40.6,486.8,42.4,486,41.3z M518.2,42.3c-0.2-0.2,1.4-2.6,1.3-2.7c-1.2,0.3-4.5,0.9-1.5-0.6c1.7-0.6,6.3-2.3,6.5-2.3
	c0.8,0.1-1,5.7-2.7,3.5C520.4,38,519.3,43.4,518.2,42.3z M523.2,39c1.2-1.8-2.9-0.2-1.1,0.3C523,39.7,523,39.7,523.2,39z
	 M489.5,44.6c-0.8-2.2,3-1.1,1.3,0.3C490.2,45.3,489.8,45.2,489.5,44.6z M427.9,47.3c-6.4-0.6-2.9-1.8-0.2-3.5
	c1,0.4-1.6,1.8-1.5,2.2c0.5,1.2,4.3-2.3,4.4-1.4c0.3,1.1-3.5,1.9,0.4,2.2c1.7,0.3,1.9,0.3,1.9,0.7C432.8,47.9,432.1,47.9,427.9,47.3
	L427.9,47.3z M524.4,50.4c-0.3-0.2,1.7-2.1,1.6-2.2c0-0.2-6.9,0.9-6.5,0.5c-1-1,7.8-1.4,8-1.5C528.5,47,524.6,51.7,524.4,50.4z
	 M522,57.3c-3.3-0.2-3.8-1.3,1.6-0.8C531.5,56.9,528.7,57.9,522,57.3z M423.8,58.6c0.1-0.7,1.1-1.3,1.4-2c-0.3-0.5-2.8-2.3-1.6-2.3
	c-0.3-0.1,9.9-0.8,8.6-0.1c-1.2,1.4-4.5-0.3-5.7,2.1c1.3,1.2,1.8,1.9,3.7,1.6C437,58.2,423.7,59.8,423.8,58.6z M426.9,57.9
	c-0.2-1.1-2.6,0.1-0.7,0.2C426.6,58.1,426.9,58.1,426.9,57.9z M426.2,55.4c1-0.8-1.5-0.7-0.8,0C425.8,55.7,425.9,55.7,426.2,55.4z
	 M520,67c0-0.2,0.3-0.5,0.6-0.7c1.9-0.9-2.7-0.7-1.7-1.8c0.3-0.3,2.9,0.5,3.6,0.6c0.6-0.3,2.9-1.9,2.6-0.8c0,0.2-0.2,0.5-0.5,0.7
	c-2,0.7,3.3,0.9,2,1.8c-0.3,0.2-3.1-0.5-3.9-0.7C522.1,66.4,519.8,68.1,520,67L520,67z M427.8,69.4c-2.4-0.7-0.5-2.8,0.3-3.6
	c0.2,0,2.2,1.1,2.4,1c1.3-2.2,2.8-2.3,0.9,0.6c3.2,1.4,2.1,2.2-0.5,0.9C430.2,69.5,429.5,70.7,427.8,69.4L427.8,69.4z M429.6,68.5
	c1.1-0.8-1-1.9-1.4-1.5c-0.3,0.6-1.2,1.1,0.1,1.6C429.2,69.2,429.2,69.2,429.6,68.5z M510,77.4c33.2-52.1-51.2-90.3-73.1-34.9
	c-5.1,13.2,0.7,24.6,5.1,35c-4.6-4.4-8.7-16-8.2-23.3c-0.6-25.9,26.5-44.9,51.4-39.3C513.5,19,530.1,57,510,77.4L510,77.4z
	 M517.8,77.6c-2.1-1.1-3.3-1.8-3.4-2.1c-1-1.5,5.5,2.3,5.6,2.1c-0.8-3.4,4.3-0.9-1.2-3.7c-9.5-4.8,9.1,1.6,3.3,2.4
	C518.7,76.8,525.4,81.8,517.8,77.6L517.8,77.6z M430.9,80.9c0.8-8,3.4-0.4,4.4-4.6c0.5-1.7,0.8-2.2,1.2-1.7c0.4,0.1-0.6,2.8-0.6,3
	c0.2,0.1,3.1-1.3,2.2-0.1C437.7,77.8,431.2,81.9,430.9,80.9z M433.2,79.3c1.8-0.7,0.4-0.9-0.6-1.2C432.4,78.8,431.2,80.5,433.2,79.3
	z M429.6,83.3c-47.7-75,80.7-122,101.4-39.2c2.4,13.1-1.1,30-10.3,39.4c-1,0-0.9-0.7,0.5-2.5c4.5-6.3,7.4-13.7,8.6-21.7
	c4.6-31-23.6-58.6-54.3-57.7c-40.6-1.8-70.7,46.2-45.5,79.7C431.5,83,431,84.1,429.6,83.3L429.6,83.3z M464.2,88.9
	c-0.8-1.1,1.2-1.9,0.2-2.8c-0.5-0.2-0.3-1.4,0.1-1.7c0.6,0.4,0.3-5.7,0.3-6.9c14.9-0.3,9.4,2,10.2-15.6c-1.3-0.4-2.7-0.9-3.8-1.6
	c-2.2,2.1-5.4,5.1-7.1,6.9c1.8,1.5,4.5-0.4,6-0.1c1.7,2.3-4.9,3-6.3,2c-1.3-0.7-2.2-0.2-1.1,0.9c1.2,1,0.3,1.3-0.4,2.1
	c-0.6-0.6-1.7-1.9-2.2-0.8c-0.3,0.2,2.5,2.8,3.5,3.6c-2.1,1.9-6.5,6.6-8.7,8c-2.5-1,0.2-1.8,2.4-4.4c1.9-1.8,3.4-3.4,3.5-3.6
	c-0.6-1.3-2.5-3.1-3.5-0.9c0.3,0.7,2,1.3,0.7,2.1c-0.4,0.4-0.6,0.4-0.9,0.2c-1.1-1.2-1.4-1.2-2.6,0.2c2.5,1.9,0.5,3.4-1.3,1.4
	c-1.2,0.7-1.9,2.6-3.2,0.6c0.4-0.4,1.9-1.8,2-2c-2.5-1.7-0.3-3.7,1.4-1.2c0.6-0.7,1.9-1.4,0.6-2c-1.7-0.9,0.1-2.6,1.1-1.3
	c0.4,0.3,0.8,0.6,0.9,0.6c0.2,0,1.1-1,1.4-1.3c-0.5-0.5-2.4-2.5-2.7-2.1c-0.8,0-7.5,9.2-8.1,5.7c0-0.4,8-8.1,8.3-8.1
	c0.5,0.1,4.1,4.2,4.1,3c0.7-0.3-0.9-1.5-1.2-1.9c0.7-0.7,1.1-1.6,2.1-0.4c1.2,1.3,1.7,0.1,0.9-1.1c-2.5-4.3,3-9.1,1.9-4.8
	c-0.8,1.1-1.1,3.7,0.1,4.4c0.4-0.1,6.6-6.2,6.8-6.5c-0.1-1.1-1.2-2.1-1.4-3.7c1.9-0.4-22.3-0.3-21.6-0.1c-0.4-0.1-0.3,8.2-0.4,9.8
	c-2.2-0.2-7.6,1.2-6-1.8h4.3c0-0.8-0.1-2.4-0.1-3.2c-1,0-3.1-0.1-4.2-0.1c-1.1-2.6,2.5-1.3,4.3-1.6c0-0.8-0.1-2.4-0.1-3.2
	c-1.4-0.2-5.1,0.5-4.3-1.3c-0.3-0.6,3.5-0.4,4.3-0.5c0-0.8,0.1-2.4,0.1-3.2l-4.2-0.1c-1.2-2.6,2.3-1.6,4.2-1.8c0-0.6,0-3.2-0.4-3.2
	c-0.2-0.1-4.5,0.2-4-0.6c-1.3-1.8,4.7-0.9,6.1-1c0,2.5,0.2,7.4,0.2,9.9h21.7c0.4-1.3,0.9-2.7,1.7-3.7c-2.3-1.6-12.4-14.3-9.1-4.2
	c0.9,0.7-0.4,2.2-1,1.5c-1.3-1.3-1.9-4.1-0.9-6c0.5-1.3,0.5-1.3,0.2-1.7c-0.8-1.5-5.4,5.1-6.1,4.9c-0.1,0-1.5-1.3-3-2.7
	c-1.5-2.1-7-5.1-4.5-6.3c6.7,4.3,5.5,10.1,11.7,2.3c-0.1-0.9-1.7,1.7-2.2,0.7c-0.8-0.5-0.8-0.8,0-1.5c2.5-2.5-5.5,1.6-5.3-4.5
	c0.5-5.4,9-3.7,7.1,1.7c-0.1,2.3,1.7-2.4,3,0.5c-4.4,4.7,3.1-1.6,3.3-2.4c-0.2-0.6-5.7-5.8-7.1-7.1c0.2-0.2,1-1.1,1.1-1.1
	c1.6,1.4,7,6.6,8.4,8.2c0.1,0.5-6.5,5.4-5,6c1,0.7,2.4-1.2,4.1-0.7c1.5-0.1,5.7,1.1,3.2,2.8c-1.6-1-4.2-1.6-5.5-0.4
	c0.4,0.4,7.4,7.2,9,8.8c1.1-0.7,2.5-1.3,3.8-1.6V34.8c-0.5,0-1.5-0.2-2.1-0.2c0-0.4-0.1-1.3-0.1-1.7c3,0.2,3-1.4,0-1.3
	c-0.3-2.6,1.7-0.9,2.2-2.1c-0.1-0.8-2.6-0.2-2.1-1.6c0.1-0.6,0.1-0.6,1-0.7c4-1.1-2.7-1.5-4.1-1.4V20l1.7-0.1l0.1,4.2
	c4.2,0.6,3.3-0.7,3.4-4.2c2.5-0.6,1.7,2,1.7,4.2h3.3c0.1-1.8-0.9-4.8,1.7-4.2v6c-0.9,0.1-5.4-0.2-5,0.5c-0.5,1,1.4,0.7,2.1,0.8
	c-0.1,1.4,0.6,1.7-1.8,1.9c-0.6,0.4-0.4,1,0.7,1c1.4,0,1,0.7,1.2,1.6c-0.6,0.1-2.2-0.1-2,0.7c-0.4,0.9,1.4,0.5,2,0.6
	c0,1.1,0.3,2-1.3,1.9c-1.8-0.1-0.4,9.9-0.8,12.4c1.3,0.2,2.6,0.8,3.7,1.6c1-1.8,12.3-9.9,7.9-9.8c-1-0.1-2.9,0.3-3.4,0.8
	c-4.4-0.2,2.7-4.6,6.4-1.5c0.2-0.2,0.6-0.6,0.8-0.8c-1.1-1.2-2.2-6.9,0.3-5.4c0.9,3.2-0.2,5.7,3.4,1.6c-0.9-0.9-2.8-2.6-3.7-3.4
	c1.7-1.2,4.1-5.9,5.5-3.1c-0.8,0.8-2.3,2.3-3,3.1c0.5,0.5,2.1,2.2,2.4,2.3c1.1-0.3,3.2-4.6,4.2-1.8c-2.1,2.5-4.5,2.8-0.5,5.3
	c0.3,0,2.9-3.2,3.2-2.6c1.4,0.8,0.7,0.9-1.1,2.9c-4.4,5.7-4-5.2-8.2,1.1c0,0.3,1.3,0.6,2.5,0.6c5.3,1.1-1.3,2.9-4,0.6
	c-1.7,1.3,0.8,2.4,0.2,4.4c0.2,1.7-1.2,5.5-2.9,3.1c5-12-6.6,1.8-9.1,3.7c0.8,0.9,1.2,2.6,1.6,3.5c0.2,0.3,8.3,0.4,8.4,0.1
	c-0.2-2.6-3.8-2.3-4.1-3.9c0.2-2,3.7,0.2,4.6,1.2c0.7,0.6,1.2,2.9,2.1,2.9c1,0.2,0.2-2.5,1.4-2.1c1.3-0.5,0.4,2.3,1.4,2.1
	c1.8-1.5,2.5-4.8,6-4.8c1.3-0.3,1.1,1.8,0.1,1.7c-1.6,0.2-3.3,1.7-3.4,3c0.4,0.2,4.2,0.1,5.3,0.1c0.1-1.2,0.2-3.7,0.2-4.9h6.2
	c1,2.3-2.6,1.7-4.4,1.8V54h4.3v1.6h-4.3v3.3c0.9,0.1,4.8-0.3,4.4,0.5c1.4,1.8-4.8,1-6.3,1.1c0-1.2-0.1-3.6-0.1-4.8
	c-2.5,0.2-7.9-1.2-3.8,2.4c0.9,0.9,3.1,0.5,2.8,2c-0.9,2-5.2-1.1-5.8-2.9c-0.6-1-0.2-1.6-1.1-1.5c-1-0.2-0.3,2.4-1.4,2.2
	c-0.8,0.1-1.1-0.4-1-1.3c-0.4-3.6-2.4,4.8-7.3,4.3c0-0.4-0.1-1.7,0.3-1.8c1.4,0,4.5-2.2,3.9-3.2c-0.1-0.2-7.9-0.3-8.2,0
	c-0.6,0.9-1,2.7-1.8,3.6c1.9,1.7,7.3,7,9.2,8.5c1.1-0.6,1.7-1.6,2.8-0.1c-0.3,0.4-1.8,1.6-1.2,1.9c0.8,1.1,1.9-1.7,2.7-0.3
	c1.2,0.7-1.2,1.6-0.6,2.3c0.9,1.3,1.8-1.9,3.3,0.2c-0.4,0.4-1.2,1.2-1.5,1.6c0.2,0.2,0.7,0.6,0.9,0.9c0.7-0.7,3.2-3.3,3.7-3.3
	c0.5,0.1,4.1,3.6,4.1,3.9c-0.8,2.6-3.2-1.4-4.1-1.7c-4.9,3.2,0.4,2.9,0.3,5.6c-0.5,2.2-3.4-2-4-2.1c-0.2,0.1-1.9,1.8-2.4,2.3
	c1.1,1.2,4.7,3.3,1.8,4.1c-1.1-1-3.2-3.1-4.2-4.1c1.2-0.8,5.7-5.6,2.1-3.7c-0.7,0.7-0.9,0.7-1.5,0.3c-1.3-0.6,0.9-1.7,0.7-2.4
	c-0.3-1-1.7,0.4-2.2,1c-0.7-0.7-1.5-1.1-0.4-2c1.7-2-1-1.1-1.7-0.1c-0.7-0.6-1.7-1.5-0.4-2.1c1.4-1.2-6.9-7.4-8.4-9.5
	c-0.9,0.7-2.8,1.2-3.7,1.6c0,0.4,0,12,0,15.5H487v3.6c0,3.1,0,3.6,0.3,3.6c0.5-0.1,0.4,1.7,0,1.7c-0.3,0.1-0.5,1.2,0,1.2
	c0.4-0.1,0.3,1.3,0.3,1.6c-1.4,0-4.2,0.3-2.9-1.6c1-0.9-0.1-1.1-0.2-2.1c0.2-1.7,0.9-0.3,0.6-3.7c-0.1-2.2-0.1-2.6-0.4-2.6
	c-0.2,0-0.3,0.2-0.4,0.6c0,1.1-2.1,0.9-1.9-0.3c0.8-0.8-4.9-0.3-5.9-0.4v1c1.2,0,3.7,0.1,5,0.1c0.3,1.9,0.2,4.1,0,5.9
	c-2.5,0.6-1.4-2.5-1.7-4.2h-3.2c0,1-0.1,5.4,0.3,5.3c0.4,0.2,0.2,1.2,0.2,1.7c-0.7,0-2.2,0.1-3,0.1c0-0.5,0-1.6,0.3-1.9
	c0.5,0,0.2-4.2,0.2-5.2h-2.8c-0.1,1-0.2,3.1-0.2,4.1c-2.6,1.3-1.5-3.8-1.6-5.8c1.3,0,3.9-0.2,5.1-0.2v-1l-5.8-0.1
	c-0.1,0.7,0.1,1.5-0.9,1.4c-0.7,0.1-0.8,0-0.8-0.6c0-0.5-0.2-0.7-0.5-0.7c-0.5-0.1-0.5-0.1-0.5,2.7c0,2.6,0,2.8,0.4,2.9
	c0.6,0.1,0.5,1.4,0,1.6C465.7,87.7,470.1,89.4,464.2,88.9L464.2,88.9z M478.1,59.6c5.8-2.1,4-10.8-2.1-10.7
	C466.9,49.1,470,62.6,478.1,59.6z M453.8,34.1c-0.1-0.3-1.8-1.7-2.2-2.2C451.2,33.2,452.6,34.8,453.8,34.1z M455.2,32.3
	c0-1.1-1.3-1.7-2.3-1.5C453.4,31.1,455.3,33.8,455.2,32.3z M486.3,108c0.1-0.4,0.7-0.5,0.7-0.1S486.1,108.6,486.3,108z M485.6,111.2
	c0.5-0.7,2.5-0.2,0.4,0.2C485.4,111.5,485.4,111.5,485.6,111.2z M479.1,113.8c0-0.3,0.4-0.7,0.4-0.2
	C479.5,113.9,479.1,114.3,479.1,113.8z M475.4,141.1c-0.3-8.8,0.2-14.1-0.6-12.7c-0.5,0.7,0.1-3.8-0.6-3.6c-0.6-0.6,0.7-0.8,0.2-2.2
	c-0.6-5.3-1.3,2.6-1.3-0.9c0.1-1.1,0.1-1.1-0.6-1.4c-0.5-0.1-2.1-1.1-1.7-0.1c0,0.3,0.9,1.7,0.7,2c-0.2,0-1.6-3.4-1.9-3.3
	c-2.2-0.4-6.6,1.3-8.3,2.9c-0.6-0.6,1.6-2.2,1.8-2.8c0.7-2.2,3-3.9,5-4.9c1.8-3.2-0.4-8.2,3.1-11.1c1.4-1.1,1.8-2.7,2.8-3.3
	c3.5-2.3,4.5-5.1,9.4-6.7c2.5-0.7,7.4-4.2,3.2-0.1c-2,1.9-1.1,1.8-2.7,2.9c-1.9,1.1-0.5,0.8,1.8-0.5c2.8-1.4,3.4-2,1.6,0.5
	c-0.4,2-9.5,5-3.1,3.3c2.3,0.6,5.2-2.6,7.1-3.7c-0.8,2-2.6,6.6-4.8,7.1c2,0.2,0.8,0.2,0.7,1.3c0.1,0.3,0.1,0.3-0.2,0.1
	c-0.5-0.2-5.5,2.9-4.8,2.8s6.7-3.3,2.9-0.3c-1.5,0.7-0.6,1.6-1.5,2.2c-1.3,0.7-1.5,1.2-0.3,1.1c2.9,0.1-3.1,1-2.2,1.8
	c1.4,0.8-2,0.2-2.6,0.2c0.9,2.4-1.8,0.6-0.4,1.8c1.7,1.3-1.4,0.6,0.5,1.4c2.4,1.9,8.1,4.5,8.5,7.4c0.4,1.9-0.7,1.8-1.4,0.3
	c-1.1-2.2-0.1,0.3-0.7,0.7c-0.3,0.2-0.4,0.2-0.6-0.1c-0.7-0.8-1.1,1.3-1.7-0.5c-1-1.9-0.5,0.4-1.4-0.5c-0.5-0.4,0.5,1.5-0.2,1.2
	c-1.4-1.2-2.6-4.1-2.4,0.2c0,2.1,0,2.2,0.6,2.4c2.2,1.5,0.8,1.2-0.6,0.3c0,0.6,0.1,3.2-0.2,3.3c-0.3,0-0.1-4.3-0.6-3.9
	c-1.6-1.3,0.1,4.5-0.7,3.6c-0.3-0.2-1-0.2-1.4-0.3C475.6,130.3,475.5,147.4,475.4,141.1L475.4,141.1z M475.3,125.9
	c0.3-2,0.4-2.4,0.2-2.2C474.7,124,474.6,128.4,475.3,125.9z M478,124.7c-0.6-0.5-0.1,1.4,0,0.5C478.1,125,478,124.7,478,124.7z
	 M486.1,172.1c0-0.1,1.9-3.3,1.8-3.4c0.1-0.2-1.9-0.1-1.8-0.4c0.2-0.7,5.9-9.9,6-9.8c0.3,0.2,1.7,2.8,2.2,3.5c0.2-0.3,1-1.7,1.2-1.7
	c0.4,0.4,4.9,8.2,6,10c-1.1,0-3.3,0.1-4.4,0.1c0.3,0.5,0.8,1.4,1.1,1.8C496,172.2,486.6,172.2,486.1,172.1L486.1,172.1z
	 M495.7,170.7c0.6-0.3-6.6-0.4-6.3-0.5c0-0.2,1.4-2,0.5-1.7c-0.2,0-1.6,2-1.6,2.4C487.9,170.9,496.6,171.1,495.7,170.7z M499,168.9
	c-0.1,0-3.5-6.9-3.8-5.9c-0.1,0.5,2.4,4.4,3,5.4C493.5,168.7,497.7,169.6,499,168.9z M494.6,168.8c-0.1-0.4-2.8-0.6-2.7,0
	c-0.1,0.3,0.2,0.3,1.4,0.3C494.5,169.1,494.7,169,494.6,168.8L494.6,168.8z M490.4,164.7c2.3-3.9,1.1-2.3,2.9-1.2
	c0.4-0.2-1.1-2.6-1.3-2.6C491.4,161.4,485.6,171.9,490.4,164.7z M491.6,166.4c1.2-1.1,1-3-0.4-0.5C490,167.7,491,167.5,491.6,166.4z
	 M493.5,166.8c-0.2-0.5-0.6-0.4-0.6,0.1C492.9,167.3,493.9,167.4,493.5,166.8z M495.7,167.1c0-0.1-1.4-3.3-1.7-2.4
	C493.9,164.9,495.2,167.8,495.7,167.1z M457.7,173.4c4.3-2.6,0.8-2.3-1.5-3.9c-4,1-7-4.5-4.7-7.8c0.5,3.7-0.9,5,3.2,2.4
	c0.5-0.1,0.8-0.3,0.8-0.4c2.3-7.5,12.1,0.8,7.4-1.3c-3.2-2.6-2.1,3.1-1.6,3.9c2.4,3-0.8,7.8-4.3,7.5L457.7,173.4z M460.4,168.8
	c0-0.3-0.3-0.9-0.5-1.2c-0.2,0.3-0.7,0.8-0.9,1C459.3,168.7,460.6,169.4,460.4,168.8z M455.2,167.1c0.3-1.4-1.9,0.1-1.1,0.3
	C454.9,167.8,455.2,167.7,455.2,167.1z M458.1,166.2c0-0.1-0.2-0.2-0.4-0.2C456.7,166,457.9,167.4,458.1,166.2z M458.8,163.4
	c0-1.5-1.5,0.3-0.8,0.4C458.8,164.1,459,164,458.8,163.4z M475.9,238.4c-3-4.6,2.4-22.6-2.5-17.9c-1.3,0.9-2.3,1.6-1.1,0.2
	c2.6-2.2,0.9-6.5,2.7-9.3c1.7-3.1,1.3-8.1-1-10.4c-1.6-1.9-2.9,0.6-5.3,0.5c-2.2,0.3-3,0.6-4.1,1.5c-3.2,1.7,2.2-3.2,4.9-3.3
	c4.6,0.7,11.1-14.4,5.7-13.5c-2.8,0.9-3.9,2.9-3.6,5.6c-3.1-3.8,2.7-5.4,3-8c-0.8-5.6-3.6-8.7-7.7-3.2c-6.3,5.5,6.6,4.9,1.8-0.7
	c1.2,1.3,2.9,1.8,4.5,0.6c-2.7,2.2-4.4,7-8.7,5.3c-2.9,3.1,2.5,8.3,6.1,10.9c-3.6-0.9-8.9-5.7-9.5-10c-0.7-3.5-3.8,3.7-3.6,6.2
	c-0.7,4.2-0.8-6.8,0.6-7.4c-1.3-0.1-3.8-0.3-4.6-1.5c-2-1.7,4.2,0.9,6-0.6c3.4-1.2,9.6-6.1,10.8-8.5c1.6-2.7,1.8-24.4-1.1-25.6
	c0.5,1.1-3.4,4.2-2.6,5.7c0,1.8-2.3-2.1-1.7-2.9c-0.3-3.7,5.7-2.9,2-6.1c-3.2,4.1-1.9,0.8-2.3-2.7c-0.7-0.7-2.1-2.2-2.8-2.9
	c-0.3,10.5-2.5,5.1-9.3,5c-0.8,1-1.6,5.5-1.5,7.1c-2.5,0.9-3.4-4.3-4.9-8.7c-0.8-2.7-0.3-2.7-1.8-3.7c-0.7-0.6-1.2-0.6-1.2-0.1
	c0,0.2,1,1.1,1.3,1.4c-0.2,1.7-0.2,4.4,0.1,5.5c-0.9,0.2-4-2.8-3.6-4.4c-0.4-1.3,3.7-4.2,0.2-3.3c-0.7,0.2-0.8,0.3-0.8,0.9
	c0.3,1.8-3.1,2-4,3.3c-3,2.7,1-7,2.9-4.9c0.7,0.4,1.7-0.3,2.4-0.6c-2.4-2.5-5-5.8-6.5-8.7c-6.4,6.7-9.1,7-6.5-4.8
	c-0.7,1.1-4.4,2.4-5.5,2.5c0-1,1.1-5.2,2.1-5.5c0.8-1.3-2.9-2-3.6-2.2c1.8-2.8,6.7-2.4,7.9,0.8c1.5-1.6,1.8-5.8,0-7.5
	c-3.4-2.2-4-2.6-3.2-8.2c2.1,2.5,3.8,3.9,3.4,7c1.1,1.1,0.8-7.2,1.7-7.5c0.9-2.6,5.2,2.5,6.1,3.1c0.3,0,1.8-1.4,2.2-1.8
	c-0.5-1-1.5-2.8-1.7-3.6c-0.9-3.8-0.7-2.5-1.8-1.1c-0.1,2.6-7.5,1.1-5.2,0c1.2-0.1,3.4-2.8,4.6-2c0.6,0.2,0.7,0.2,1.1-0.4
	c1.6-7.8-2.8-4.6-3.5-7.7c-0.4-1.4-0.6-8.4,0.5-5.6c2,3,3,3.5,3,6.9c0.8,0.3,2.5-13,5.5-10.8c-0.2,2.6-0.7,7.8,0.2,10.4
	c0.8-1.3-0.4-2.5,0.3-3.9c0.7-1.3,4.8-3.1,5.2-2.3c-1.2,1-2.2,5-3.7,5.2c-1.1,0.2-1,2.9-1.1,3.8c2.1-1.6,1.9-5.1,5.6-3.4
	c3.1,1.1,0,1.1-1,2.3c-1.2,1.6-2.5-0.2-3.6,1.3c-1,0.8-0.6,2.2,0.5,1.2c1.6-1.2,4.4-0.3,5.8,1.9c0.7,1.3-1.1-0.2-2.1,0.5
	c-2.3,0.9-3,0-3.9-1.1c1.1,4.6,5.8,4.8-1.7,8.3c-0.4,0.3-0.4,0.3,0.3,0.9c2.9,2.7,1.7-1,3.9-1.6c0.8-0.4,3.7,0.9,4.3,1.8
	c-1.6-0.1-4.1,0.9-5.7,1.2c5.8,2.5,2.7,1,2.4,7.8c0,0.4,0.1,0.5,0.5,0.4c3.5-1.1,3.8,2.7,3.2,5.7c-0.6-1.5-2.2-2-3.5-2.9
	c-0.1,1.2,0.6,4.3,1,5.6c0.4,1.1,7.1-7.2,8.2-4.6c4.9,13.5-0.2,12,9.2,7.2c2.8,4.6,5.9,15.4,8.2,20.9c0.6,1.6,0.7,2.6,1.2,0.8
	c0.9-3.1,2.7-6.4,3.5-9.8c3.6-7.4-1.1-17.8,9.8-8.9c2.3,3.2,1.9-5.4,2.8-8.3c-0.6-7.3,7,0.7,9.5,3.2c0.6-2,1.3-5.2,1.2-6.6
	c-0.4,1-2.6,1.8-3.2,2.5c-0.3,1-0.3,1-0.5,0.6c-0.6-2.2-0.3-6.7,3.2-5.4c2-0.2-2.2-6.8,0.4-7.1c0.9,0,4-1.2,1.5-1.2
	c-1.3,0.1-2.6-1.2-3.9-0.9c-2.9,0.4,3.4-2.9,4-1.6c1.1,0.3,0.5,1.6,1.3,2.1c3.7-0.4,2.9-2-1-3.7c-1.8-0.9-0.5-1.5,0.4-3.5
	c3.5-6.2,0.1,0.1-2.7-1.8c-0.8-0.3-1.2-0.3-2,0c-1.1,0.5,0.8-1.9,2.1-2.6c1.7-1.7,6.3,2.3,4.1-1.1c-0.6-0.7-0.7-0.7-1.6-0.6
	c-1.3,0.5-2.5-1.5-3.6-1.8c-1.2-0.5-0.4-0.7,0.6-1.2c4.3-1.9,3.3,2,5.7,3c0-0.3,0.1-3.7-1-3.4c-1.7-0.2-2.4-4.3-3.8-5.2
	c0.4-0.6,4.3,0.9,4.9,1.8c1.2,0.4,0.1,3.4,0.7,4.2c1.7-0.5,0-9.3,0.7-10.4c2.7-1.7,5.4,15.4,5.3,9.6c-0.6-1.9,1.9-3.6,2.8-5.4
	c1-1.9,0.7,0.7,0.8,2.2c0.5,7.4-4,2.7-4,8.6c-0.8,4.5,2.4,1.6,4.2,3.9c0.8,0.7,1.2,1,1.7,1c2.4,0.8-5.1,3-5.4-0.2
	c-1-3.2-2,4-3.2,4.9c0.5,0.5,1.6,1.6,2.1,2.1c9.1-9.4,5.3,0,7.9,4c0.1-1.6-0.7-2.5,1.3-4.5c0.7-0.8,1.4-1.7,1.6-2
	c0.9-2,0.8,5.3,0.3,5.3c-1,1.8-2,1-3.2,2.6c-1.3,2.1-1.4,3.4-0.7,5.8c0.6,1.3,0.7,2.2,1.4,0.6c0.8-3.4,8.6-1.1,6.6,0.3
	c-1-0.1-2.4,0.9-3.3,1.7c1.7,1,2.3,4.6,2.4,5.8c-0.6,0.3-4.6-1.7-5.3-2c0.1,1.8,1.6,7.3,0.4,8.9c-1.4,1-3.6-1.6-5.5-3
	c-1.6-1.3-1.3-2-2.3-0.1c-1,2-4.2,5.4-5.4,7.2c0.4,0.4,1.4,0.9,2.1,0.6c2.6-1.7,5.5,7.9,2.9,5c-0.5-0.6-0.9-0.9-1.8-1.2
	c-3.1-0.7-1.3-3.5-4.4-3.4c-0.2,0.4,0.1,1.5,0.6,1.8c2.7,1.5-1,6.1-2.8,6.2c0.3-1,0.3-3.8,0.1-5.5c3-2.9,0.1-1.7-1-0.3
	c-0.9,3.3-1.9,11.1-5.1,11.6c-0.8-1.6-0.1-3.8-1.4-6.2c-0.4-1.1-0.6-1.4-0.9-1.3c-10.5,2.8-7.3,3.2-9-4.7l-2.8,3
	c-0.1,0.9,0.2,5.9-0.7,4.2c-1.4-2.5-2.2-1.3-2.9,0.5c5.8,1.5,2.3,9,1.7,6.7c0.5-1.6-2.6-3.9-2.7-5.6c-3.1,5.8-3.3,21.9-1.7,25.6
	c3.1,5.8,13,9.8,20,9.1c-14.5,2.8-2.9-1.8-6.4,12.8c-2.5-21.1-3.4-2-13.6-1.3c1.2-0.9,7.5-4.2,7.3-5.6c0.3-1,0.8-4.2-0.8-3.8
	c-4.8,1.7-9.1-4.5-2.8-5c-3.4,1.6-1.1,4.8,2.2,3.2c4.4-2.1-7.4-7.1-7.6-6.6c-0.1,0.1-0.3,1-0.3,2c-1.7,5.6,7.4,7,4.8,11.1
	c-1.8,1.5,0.5-1.2-0.7-2.1c-2.4-3.4-3,3.2-3.8,5.2c-2.3,6.6,7.2,7.9,9.3,11.8c-2.4-1.8-6.6-3.3-9-5c-1.7-1.4-2.4-1.2-1.1,0.9
	c1.8,3.3,2.7,8.1,1.9,11.8c-0.5,2.3-0.8,2.5-0.6,0.4c0-2.8,0.1-7.1-1.8-2.7c-1.4,2.8-1.5,3.7-0.7,6.4c1.4,6.2-0.9,14.5-0.4,22.3
	L475.9,238.4z M466.3,154c-0.6-0.4,3.1-3.6,2.5-4.2c-0.5-0.1-2.1,2.6-2.6,2.9c-0.7-0.4,2.4-4.2,0.8-3.2
	C465,149.7,465.2,156.1,466.3,154L466.3,154z M485.8,153.9c1.6-1.9-2.9-6.6-1.5-3.7c1,1.2,1.3,3.9,0.3,1.8c-0.8-1.8-3.4-3.6-1.1-0.5
	C485.1,152.6,484.8,156,485.8,153.9L485.8,153.9z M471.6,147.3c-0.3-3-0.9-10-2.4-4.9c0.6,1-0.1,2-0.6,2.7
	C469.2,145.5,472.6,152.1,471.6,147.3z M481.5,147.1l1.4-2c-2-1.4,0.5-3.5-1.9-4.4C481,141.4,477.7,154,481.5,147.1z M450.4,146.3
	c0.4-1.1,0.7-2,0.7-2c-2-1.2-3.2-1.7-3.2-1.6C448.5,144.3,449.4,151.9,450.4,146.3z M502.5,147c1.8-5.4,1.2-4.5-2-2.7
	C500.8,144.8,501.8,151.2,502.5,147z M466.2,145.1c-0.8-1-1.1-0.9-1.1,0.3c-0.1,2.5,0.8,1.2,1.6,0.4L466.2,145.1z M486.3,145.7
	c0.1-2.1-0.5-1.2-1.3-0.1C485.1,146.4,486.6,148.2,486.3,145.7z M444.1,145.1c-0.1-1,0.6-3.8-0.6-4c-0.3,3.3-0.4,3.6-1.1-0.3
	c-0.9,1-1.5,1.4-0.6,3C442.5,145,444.3,147.7,444.1,145.1L444.1,145.1z M508.7,145.3c1.2-1.3,2.1-3.3,0.4-4.2c-0.4,1-1.1,5-1.1,1.4
	C507.8,136.9,506.1,149.1,508.7,145.3z M459.6,145c0.5-2.3,1.3-7.6-2.5-7.6c-1.1,0.9-3.8,5.8-3.5,6.1
	C454.2,143.7,458.9,145.6,459.6,145z M495.7,144.3c1.3-0.4,2.3-0.8,2.3-0.8c0-0.7-3.5-6.3-3.9-6.3c-0.3,0-2.2,1.5-2.8,1.9l0.1,2.5
	C491.5,145.8,491.9,145.5,495.7,144.3L495.7,144.3z M484.3,143.6c2-1.4-1.7-2.1-0.7-0.8c0.3,0.6,0.1,0.7-0.4,0.2
	C481.5,141.5,482.6,146.7,484.3,143.6z M468.7,144.2c0.3-0.5,0.4-1.4,0-1.6c-0.3-0.2-1.6,1.5-1,0.2c0.1-0.2,0.2-0.5,0.2-0.5
	C464.6,141.5,468.2,145.5,468.7,144.2L468.7,144.2z M436.5,142.8c1-0.9,3.5-1,3.5-2.4c0-0.6-0.1-0.6-0.9-0.1
	c-0.9,0.6-1.1,0.2-0.3-0.5c0.7-0.6,0.6-0.9-0.2-0.9C437.9,138,434.2,144.6,436.5,142.8z M515.3,142.1c-0.1-2.4-4.3-4.6-2.8-2.3
	c1.8,1.8-1.6-0.6-1.2,0.5c-0.2,1.3,2.7,1.8,3.5,2.5C515.6,143.3,515.7,143.2,515.3,142.1z M454,138.5c-0.4,1.2-5.3,2.8-5.1,1
	c1.7-2.3,3.5-4.5,5.7-1.9c3.4-2.9-2.1-0.6-5.4-9.1c-2,1.8-2,7.3-1.9,11.5c1.5,0.9,3.3,2.1,4.6,2.7
	C452.3,141.9,453.9,138.7,454,138.5L454,138.5z M503.2,140.7c2.3,0.3,0.7-15.6-1.7-10.7c-2.2,6-7.8,4.9-4.7,7.8
	c1.2-1.7,2.9-2,4.4,0.3c0.3,0.9,1.9,1.4,1.1,2c-2.8,1.6-6.2-3.6-2.8,2.8C500.7,142.2,502.5,141.2,503.2,140.7L503.2,140.7z
	 M489.6,137.9c-0.1-0.7,1.3-4.8,0.2-5.6c-1.8-1.3-6.2-6.1-6.2-3c-0.6,11.4-6.3,10.1,4.6,6.5c2.3-1.2-1.8,7-5,3
	c-1.2,0.7-1.7,0.8-0.7,2.1c0.4,1.2,1.6,0.5,2.3,1.1C484.9,143.1,489.7,138,489.6,137.9L489.6,137.9z M466.7,141.9
	c0.7-0.4,1.8,0.2,2.2-1.1c0.5-1.1,0.9-1.1-0.1-1.6c-1.3-0.5-2.7,1.6-4.2,0.3c-0.8-0.5-3.3-4.9-1.4-3.7c0.6,0.5,5.2,1,4.9,1.8
	c4.6,4.2-1.3-7.1-1.8-8.9c-0.2-0.5-3.9,2.9-5,4c0.2,1.3,0.5,4,0.7,5.4C462.7,138.9,466.4,143,466.7,141.9L466.7,141.9z M451.6,139.6
	c2.5-1,2-1.8-0.5-0.9c-2,0.4,2.8-1.4,2.2-1.7C451.7,135.5,446.9,141.3,451.6,139.6L451.6,139.6z M501.9,139.7
	c-0.3-1-2.4-3.9-3.9-2.7c-0.5,0.4,2.4,1.2,2.4,1.5c0.3,0.4,0.1,0.4-0.9,0C495.6,137.6,501.1,140.8,501.9,139.7z M486.4,139.2
	c0.7-0.4,1.5-1.6,1.8-2.4c0.2-1-7.4,1.4-2.9,0.9c4.2-0.1-1.4,0.6-1.3,1.2C484.4,139.3,485.6,140,486.4,139.2z M467.2,139.1l0.5-0.4
	c-0.9-0.5-2.5-0.5-3.1-0.9c-0.5-0.5,4,0.4,2.9-0.3c-0.8-0.5-3.4-0.9-4.3-1C463.1,137.7,465.5,140.6,467.2,139.1L467.2,139.1z
	 M445.6,133.5c-0.3-2.5,1.3-4.9,2.4-6.6c-0.4-4.2-2.4-10.4-1.1-14.7c0.5-2,0.5-2.1-0.5-2.4c-1.3-0.2-3.9-2.3-5.2-3.1
	c-1,1-3.1,1.3-1,3.8c3.9,5.2,2.8,7.4-0.1,12.3c0,0.1,0.3,0.1,0.6,0.1c3.6-2.6,5.9-1,6,4.2c-0.9-1.6-4.6-2.2-5.2-3.3
	c-1.2-1.5-4.5,3-4.9,4.1c0,0.6,0.3,0.5,0.7-0.2c0.1-1.3,4.6-2.4,5.9-2.3c-0.8,1.1-2.1,6.2-3.8,5.6c-2.6-0.2,4.7,6.5,6,7.5
	C445.3,137.1,445.4,135.9,445.6,133.5z M508.6,136.5c1.5-1.8,6-5.8,3.6-5.4c-1.8,0.7-3.1-4.5-3.9-5.6c1-0.1,5.2,0.6,5.9,2.2
	c0.4,0.7,0.5,0.7,0.7,0.5c0.2-0.3,0-0.6-1.1-2.2c-1.3-1.8-2.6-3.3-3.9-2c-1,0.8-4.2,1.9-5.1,2.9c-0.3-1.8,1.6-7.3,4.4-4.8
	c0.7,0.7,1.6,0.8,2.4,0.9c-4.1-6.5-3.3-8.3,1-14.3c-2.9-4.2-4.6,0.8-8,1.3c0.1,4.4,0.9,11.2-1.5,16.3
	C508.8,132.5,503.4,142.1,508.6,136.5z M459.8,135.7c-0.2-1.9-0.8-0.7-1.3,0C459.2,136.2,460.2,137.3,459.8,135.7z M492.5,136.1
	l0.6-0.4c-0.3-0.3-0.9-0.9-1.2-1.2C491.8,135.5,491.1,137.4,492.5,136.1L492.5,136.1z M459,131.3c-0.3-2.3-1.8-8-2.7-10.4
	c-0.8,0-5.9,5-5.9,5.8c0,0.6,0.8,2.4,1.8,3.9c0.8,1.2,1.1,1.8,0.7,0.4c-1.4-1.3,4.3-6.8,3.4-3.8c-0.6,1.2,0.2,4.5-1.6,4.7
	c-2.3,1.1,1.4,2,2.2,2.9C457.8,133.7,459.5,132.4,459,131.3L459,131.3z M496.9,133.3c0.8-0.2,0.6-1.4-0.2-1.5
	c-1.8-0.1-1.1-3.5-1.6-4.6c-0.8-1.7,0.8-0.8,2.1,0.4c1.7,1.6,1.5,2.8,1.2,4.3c0.3,0.2,2.5-3.8,2.9-5.2c-7.4-7.8-6.3-8.6-8.2,2.1
	c-1,3.6-0.8,3.2,1.6,5.9C495.1,134.3,496.3,133.5,496.9,133.3L496.9,133.3z M430.8,131.1c5.6-3.8,2.1-5.8,0.8-10.3
	C431.6,120.1,427.7,135,430.8,131.1z M521.9,130.8c-1.2-6-1.4-13.6-3.1-7.2c-0.5,2.5-2.3,3.2-0.9,4.9
	C519.1,129.4,522.6,133.7,521.9,130.8z M455.3,131c0.4-0.3,0.4-3.2,0.5-4.2c-2.6,0.7-3.7,7.2-1,2.1
	C455.5,129.1,452.9,132.8,455.3,131L455.3,131z M497.2,131.2c0.1-0.3-1.3-2.5-0.6-2.3c0.3,0,1.2,3,1.6,1.7c0.3-0.8-1-2.9-2.2-3.6
	C495.1,126.5,495.7,132.9,497.2,131.2z M440.4,130.3c0.3-0.6,2.9-5.1,0.9-4.2c-3.6-0.4-5.6,5.2-2.3,2.4
	C443.3,124.9,435.6,132.6,440.4,130.3z M512.5,130.5c0.2-0.4-0.2-1.2-1.1-2.1c-2.3-3.2,2.7,3,2.6,0.5c-0.1-1.9-3.1-2.6-4.5-2.7
	C508.6,125.9,511.3,132.5,512.5,130.5z M425.3,126.1c2.6-0.4,5-3.8,1.2-1.9c-3.2,1.6-0.2-1,1-1.6c1.5-0.8-2.7-1.5-2.7,0.1
	C424.3,124.6,422.5,127.5,425.3,126.1z M527.4,125.5c-0.6-3.3-1.5-4.3-3.4-3.6c-1.8-0.1,3,2.5,2.3,2.8c-0.7,0-5.1-2.7-2.8,0
	C523.8,125.2,528.3,127.7,527.4,125.5z M446,124.7c-0.5-4-4.9-2.4-3.2-1.7c0.6,0,2,0.5,2,0.7c0.4,0.4-2.7-0.5-2.7,0
	c-0.7,0.7,2.8,1.4,3.4,2C446.5,126.4,446.2,125.9,446,124.7L446,124.7z M436.1,125.4c1.2-1.8,4.7-5.7,1.9-6.8
	c-1.9,0.3-2.2-4.4-2.8-4.8c-0.3,0-1.9,3-2.3,3.7l0.4,1.7C433.8,120.3,434.8,126.9,436.1,125.4L436.1,125.4z M506.1,125.4
	c2.5-1.1,6-2.3,0.5-1.8c-0.1-0.6,3.6-0.4,2.1-1.5C506.4,120.5,504,127,506.1,125.4z M517,123.6c0.6-2.4,2.5-5.2,1-7.4
	c-2.7-3.9-3.7-9.1-6.4-2.4c-1.4,2.7-1.4,2.7-0.3,4.8c0.4,0.8,0.4,0.8,0.6,0.4c-1-2.4,0.2-4.5,3.4-5.3c1.7-0.9,0.3,1.2,0,3.3
	c-0.5,2.3-3.1,0.8-2.9,3.4C513.2,122,515.9,129,517,123.6z M428.9,122.7c-0.1-0.4-3.4,1.2-1,0.5C428.5,123,428.9,122.8,428.9,122.7z
	 M524,123.1c-0.5-0.5-2.5-0.7-0.7,0.1C524.3,123.4,524.4,123.4,524,123.1z M429.4,121.8c0.6-1.1-1.6-0.3-0.9,0.2
	C428.7,122.3,429.1,122.2,429.4,121.8z M523,121.8c0.1-0.2-0.7-0.8-0.9-0.6C521.8,121.6,522.7,122.6,523,121.8z M428.5,121.1
	c1.6-1-7.8-3.7-1.1-2.1c1.1,0.4,1.2,0.4,0.9-0.1c-0.9-1.7-4.9-1.1-5.7,0C424.2,119.3,427.2,122.5,428.5,121.1L428.5,121.1z
	 M525.2,121c1-0.6,1.7-1.4,2.8-1.8c2.2-0.5-0.9-1.3-2-1.5c-0.9-0.6-4.3,1.8-2.6,1.6c0.1-0.3,4.7-1.5,2.7-0.4
	c-0.9,0.2-3.1,1.4-3.2,1.7C522.9,121.5,524.4,121.8,525.2,121z M451.9,119.2c1-2.3-3.9-5-1.8-2.5c1.2,1.3,1.2,1.8-0.1,0.7
	C446.2,114.8,451.4,121.8,451.9,119.2z M501,119.2c1.8-0.5,2.6-3.6,0.4-1.8c-1.3,1.1-1.4,0.6-0.1-0.7c0.8-0.9,0.8-0.9,0.3-0.9
	c-1.2,0.3-2,0.9-1.9,2.7C499.6,120.4,499.6,119.9,501,119.2L501,119.2z M440.5,118.1c1.7-2-1.9-6.9-2.8-7.9c-0.2,0-2.2,2.6-2.2,2.9
	c1.4,0.8,5.9,2.8,4.2,5C439.1,119.4,439.9,120.1,440.5,118.1z M438.4,117.9c0.2-0.7-1.4-2.3-1.5-3c0.5-0.8,2.8,4.6,2.7,2.2
	c0.1-1.3-2.2-3-3.6-2.9C435.6,114.2,437.5,119.8,438.4,117.9z M514.3,117.6c3.2-5.2-1.7-3.5-2.5-0.6c0.1,2.3,2-2.6,2.6-2
	C514.2,115.6,511.4,119.8,514.3,117.6z M434.1,112c1.1-1.6,1.6-2.4,2.4-3.4c-4.3-4.9-3.9-2.9-4.3,2.4
	C432.5,114.9,432.2,115,434.1,112z M519.2,111.5c-0.1-5.8,0-7.8-4.1-2.9c0.3,0.7,2.8,3.9,3.2,4.7C519.5,115.5,519,113.8,519.2,111.5
	L519.2,111.5z M430.5,112.6c-0.1-0.2-0.8-0.7-1.1-0.9C429.6,112.1,430.7,113.5,430.5,112.6z M521.6,112.3c0.2-0.4,0.2-0.4-0.2-0.2
	C520.5,112.5,521.3,113.1,521.6,112.3z M428.5,111c-0.5-1.4-1.4-4-0.7-3.1c0.8,2.7,2.3,3.4,1.4,0.6c-0.5-0.8-2.3-2.8-2.5-2.6
	C426.3,106.4,426.7,112.2,428.5,111L428.5,111z M524,110.7c3.7-8.8-3.4-2.7-1.8-0.4c0.4,0.3,1.3-3,1.6-2.6c0.1,0.2-0.1,1-0.4,1.8
	C522.4,111.9,523,111.4,524,110.7L524,110.7z M449,106.3l1.2-0.6c-2.9-2.3-5.6,1-3,0.4c2.2-0.5-0.2,0.6-0.4,0.9
	C446.8,107.2,447.6,106.9,449,106.3L449,106.3z M503.8,106.5c-0.9-0.5-0.7-0.7,0.3-0.4c2.5,0.8-0.2-2.7-3-0.3c0.7,0.3,2.4,1.1,3,1.2
	C504.6,106.9,504.6,106.8,503.8,106.5z M443.3,103c2.1-1.4,2.3-0.6,1-2.6c-1.8-2.9-3.4-7.4-3.9-10.7c-0.3-2.4-0.4-2.7-0.7-1.9
	C438.5,91.2,438.3,106.8,443.3,103z M510.9,102.8c1.9-2.7,1.9-13.3,0.7-15.5c-0.7,4.5-2.7,10.7-5.1,14.5
	C507.4,102.2,510.3,105.6,510.9,102.8z M435.6,101.2c1.6-1.7-0.6-0.5-1.4-0.4c-1.1-0.2,2.5-1.3,1.6-1.9c-1.1-0.8-3.3,1.9-4.5,2.2
	C432.5,101.7,434.5,102.1,435.6,101.2z M519.3,101.4l0.8-0.3c-0.7-0.4-1.5-0.9-2.1-1.5c-2.8-2.1-3,0.1-0.4,0.9c0,0.3-0.4,0.3-1.2,0
	C513.2,99.7,517.6,102.8,519.3,101.4z M448.3,97.6c2.7-0.6,0.9-1.4-0.9-2.2c-1.1-0.3-3.4,0.1-1.2,0.6c1.4,0.3,2.1,1.3,0.6,0.8
	C443.8,96,446.3,99.1,448.3,97.6z M505.5,97.6c1.7-1.5-0.8-0.7-1.6-0.8c-0.3-0.3,1.8-1,2.5-1.2c-1.5-0.8-4,0.2-4.8,1.3
	C501.8,97.2,504.6,98.7,505.5,97.6z M448.2,92.3c3.2-1.7-1.6-2-2.3-1.1c-0.9,0.9-1.1,2.1,0.5,1.1c2.6-0.7-0.2,0.4-0.5,0.8
	C446.2,93.6,446.9,93.3,448.2,92.3z M505.5,93.2c-0.2-0.4-3-1.5-0.5-0.9c3.2,0.9-0.5-3.1-3.1-1C503,91.7,504.3,93.9,505.5,93.2z
	 M437.2,92.8c0-0.2-0.7-0.9-0.9-0.9C436,92,437.2,93.4,437.2,92.8z M515,92.1c0.4-0.6,0.2-0.6-0.4,0.1
	C513.9,93.1,514.8,92.6,515,92.1z M435.3,91.5c-1.8-4.8-1.2-3.7,0.8-0.8c1-1.7-1.4-3.8-2.7-5.2C433.4,87.9,433.2,92.3,435.3,91.5
	L435.3,91.5z M517.1,91.3c0.8-0.6,0.8-4.2,0.8-5.8c-3.3,2.2-4,8.8-0.9,2.4C517.7,88.7,514.7,92.8,517.1,91.3L517.1,91.3z
	 M506.6,88.3c-0.9-1.6-0.3-1.4,0.7,0.2c0.8,1.2,0.8,1.3,1,0.8c1-1.9-3.2-3.9-4.1-3.9c0.7,0.9,1.6,4.1,2.4,4.3
	C507.4,90.1,507.4,89.7,506.6,88.3z M445.2,89.4c0.5-0.9,1.4-3.2,2-4.1c-4.5,0.4-5.2,6.2-3,2.9C447,84.5,442.4,91.5,445.2,89.4z"/>
</svg>
